<?xml version="1.0" encoding="UTF-8" standalone="no"?><svg xmlns="http://www.w3.org/2000/svg" xmlns:xlink="http://www.w3.org/1999/xlink" contentScriptType="application/ecmascript" contentStyleType="text/css" height="2107px" preserveAspectRatio="none" style="width:1744px;height:2107px;" version="1.1" viewBox="0 0 1744 2107" width="1744px" zoomAndPan="magnify"><defs/><g><!--cluster Server--><path d="M46.0865,1435.823 L88.0865,1435.823 A4.5,4.5 0 0 1 91.0865,1438.823 L98.0865,1456.3074 L1009.09,1456.3074 A3,3 0 0 1 1012.09,1459.3074 L1012.09,1665.823 A3,3 0 0 1 1009.09,1668.823 L46.0865,1668.823 A3,3 0 0 1 43.0865,1665.823 L43.0865,1438.823 A3,3 0 0 1 46.0865,1435.823 " fill="#FFFFFF" style="stroke: #000000; stroke-width: 1.5;"/><line style="stroke: #000000; stroke-width: 1.5;" x1="43.0865" x2="98.0865" y1="1456.3074" y2="1456.3074"/><text fill="#000000" font-family="Tahoma, sans-serif" font-size="12" font-weight="bold" lengthAdjust="spacingAndGlyphs" textLength="42" x="47.0865" y="1449.8289">Server</text><!--cluster Frontend--><path d="M169.087,357.82 L227.087,357.82 A4.5,4.5 0 0 1 230.087,360.82 L237.087,378.3044 L1309.09,378.3044 A3,3 0 0 1 1312.09,381.3044 L1312.09,851.82 A3,3 0 0 1 1309.09,854.82 L169.087,854.82 A3,3 0 0 1 166.087,851.82 L166.087,360.82 A3,3 0 0 1 169.087,357.82 " fill="#FFFFFF" style="stroke: #000000; stroke-width: 1.5;"/><line style="stroke: #000000; stroke-width: 1.5;" x1="166.087" x2="237.087" y1="378.3044" y2="378.3044"/><text fill="#000000" font-family="Tahoma, sans-serif" font-size="12" font-weight="bold" lengthAdjust="spacingAndGlyphs" textLength="58" x="170.087" y="371.8259">Frontend</text><!--cluster Common Stuff--><path d="M1064.09,1041.823 L1160.09,1041.823 A4.5,4.5 0 0 1 1163.09,1044.823 L1170.09,1062.3074 L1729.09,1062.3074 A3,3 0 0 1 1732.09,1065.3074 L1732.09,1677.823 A3,3 0 0 1 1729.09,1680.823 L1064.09,1680.823 A3,3 0 0 1 1061.09,1677.823 L1061.09,1044.823 A3,3 0 0 1 1064.09,1041.823 " fill="#FFFFFF" style="stroke: #000000; stroke-width: 1.5;"/><line style="stroke: #000000; stroke-width: 1.5;" x1="1061.09" x2="1170.09" y1="1062.3074" y2="1062.3074"/><text fill="#000000" font-family="Tahoma, sans-serif" font-size="12" font-weight="bold" lengthAdjust="spacingAndGlyphs" textLength="96" x="1065.09" y="1055.8289">Common Stuff</text><ellipse cx="645.276" cy="1616.6608" fill="#F8F8F8" rx="67.189" ry="15.8378" style="stroke: #383838; stroke-width: 0.5;"/><text fill="#000000" font-family="Tahoma, sans-serif" font-size="12" lengthAdjust="spacingAndGlyphs" textLength="106" x="592.276" y="1620.403">controller/sockets</text><ellipse cx="458.5134" cy="1508.065" fill="#F8F8F8" rx="45.4264" ry="13.242" style="stroke: #383838; stroke-width: 0.5;"/><text fill="#000000" font-family="Tahoma, sans-serif" font-size="12" lengthAdjust="spacingAndGlyphs" textLength="60" x="428.5134" y="1511.8072">dispatcher</text><ellipse cx="96.0276" cy="1482.065" fill="#F8F8F8" rx="36.9411" ry="13.242" style="stroke: #383838; stroke-width: 0.5;"/><text fill="#000000" font-family="Tahoma, sans-serif" font-size="12" lengthAdjust="spacingAndGlyphs" textLength="48" x="72.0276" y="1485.8072">frontend</text><ellipse cx="96.2139" cy="1532.065" fill="#F8F8F8" rx="25.6274" ry="13.242" style="stroke: #383838; stroke-width: 0.5;"/><text fill="#000000" font-family="Tahoma, sans-serif" font-size="12" lengthAdjust="spacingAndGlyphs" textLength="32" x="80.2139" y="1535.8072">game</text><ellipse cx="260.358" cy="1534.6772" fill="#F8F8F8" rx="54.771" ry="13.3542" style="stroke: #383838; stroke-width: 0.5;"/><text fill="#000000" font-family="Tahoma, sans-serif" font-size="12" lengthAdjust="spacingAndGlyphs" textLength="74" x="223.358" y="1538.4194">manipulation</text><!--entity _model_sockets--><rect fill="#F8F8F8" height="34.4844" rx="3" ry="3" style="stroke: #000000; stroke-width: 0.5;" width="107" x="761.087" y="1548.823"/><text fill="#000000" font-family="Tahoma, sans-serif" font-size="12" lengthAdjust="spacingAndGlyphs" textLength="87" x="771.087" y="1570.8289">model/sockets</text><ellipse cx="458.7647" cy="1614.065" fill="#F8F8F8" rx="20.6777" ry="13.242" style="stroke: #383838; stroke-width: 0.5;"/><text fill="#000000" font-family="Tahoma, sans-serif" font-size="12" lengthAdjust="spacingAndGlyphs" textLength="25" x="446.2647" y="1617.8072">path</text><ellipse cx="96.0779" cy="1582.065" fill="#F8F8F8" rx="31.9914" ry="13.242" style="stroke: #383838; stroke-width: 0.5;"/><text fill="#000000" font-family="Tahoma, sans-serif" font-size="12" font-weight="bold" lengthAdjust="spacingAndGlyphs" textLength="41" x="75.5779" y="1585.8072">server</text><ellipse cx="260.7883" cy="1612.7633" fill="#F8F8F8" rx="57.7013" ry="13.9403" style="stroke: #383838; stroke-width: 0.5;"/><text fill="#000000" font-family="Tahoma, sans-serif" font-size="12" lengthAdjust="spacingAndGlyphs" textLength="82" x="219.7883" y="1616.5054">socket-events</text><ellipse cx="972.5931" cy="1520.065" fill="#F8F8F8" rx="23.5061" ry="13.242" style="stroke: #383838; stroke-width: 0.5;"/><text fill="#000000" font-family="Tahoma, sans-serif" font-size="12" lengthAdjust="spacingAndGlyphs" textLength="29" x="958.0931" y="1523.8072">state</text><ellipse cx="96.0276" cy="1636.065" fill="#F8F8F8" rx="36.9411" ry="13.242" style="stroke: #383838; stroke-width: 0.5;"/><text fill="#000000" font-family="Tahoma, sans-serif" font-size="12" font-weight="bold" lengthAdjust="spacingAndGlyphs" textLength="48" x="72.0276" y="1639.8072">types.d</text><ellipse cx="260.5576" cy="768.062" fill="#F8F8F8" rx="19.9706" ry="13.242" style="stroke: #383838; stroke-width: 0.5;"/><text fill="#000000" font-family="Tahoma, sans-serif" font-size="12" font-weight="bold" lengthAdjust="spacingAndGlyphs" textLength="24" x="248.5576" y="771.8042">app</text><!--entity _background--><rect fill="#F8F8F8" height="34.4844" rx="3" ry="3" style="stroke: #000000; stroke-width: 0.5;" width="87" x="217.087" y="804.82"/><text fill="#000000" font-family="Tahoma, sans-serif" font-size="12" lengthAdjust="spacingAndGlyphs" textLength="67" x="227.087" y="826.8259">background</text><ellipse cx="260.4571" cy="460.062" fill="#F8F8F8" rx="29.8701" ry="13.242" style="stroke: #383838; stroke-width: 0.5;"/><text fill="#000000" font-family="Tahoma, sans-serif" font-size="12" lengthAdjust="spacingAndGlyphs" textLength="38" x="241.4571" y="463.8042">bundle</text><!--entity _canvas--><rect fill="#F8F8F8" height="34.4844" rx="3" ry="3" style="stroke: #000000; stroke-width: 0.5;" width="61" x="428.087" y="576.82"/><text fill="#000000" font-family="Tahoma, sans-serif" font-size="12" lengthAdjust="spacingAndGlyphs" textLength="41" x="438.087" y="598.8259">canvas</text><ellipse cx="814.5073" cy="656.062" fill="#F8F8F8" rx="24.9203" ry="13.242" style="stroke: #383838; stroke-width: 0.5;"/><text fill="#000000" font-family="Tahoma, sans-serif" font-size="12" lengthAdjust="spacingAndGlyphs" textLength="31" x="799.0073" y="659.8042">circle</text><ellipse cx="260.8068" cy="614.964" fill="#F8F8F8" rx="78.7198" ry="18.144" style="stroke: #383838; stroke-width: 0.5;"/><text fill="#000000" font-family="Tahoma, sans-serif" font-size="12" lengthAdjust="spacingAndGlyphs" textLength="133" x="194.3068" y="618.7061">controller/components</text><ellipse cx="260.5845" cy="510.062" fill="#F8F8F8" rx="52.4975" ry="13.242" style="stroke: #383838; stroke-width: 0.5;"/><text fill="#000000" font-family="Tahoma, sans-serif" font-size="12" font-weight="bold" lengthAdjust="spacingAndGlyphs" textLength="70" x="225.5845" y="513.8042">dispatcher</text><ellipse cx="814.5845" cy="580.062" fill="#F8F8F8" rx="52.4975" ry="13.242" style="stroke: #383838; stroke-width: 0.5;"/><text fill="#000000" font-family="Tahoma, sans-serif" font-size="12" lengthAdjust="spacingAndGlyphs" textLength="70" x="779.5845" y="583.8042">drawing/text</text><!--entity _Events--><rect fill="#F8F8F8" height="34.4844" rx="3" ry="3" style="stroke: #000000; stroke-width: 0.5;" width="58" x="1238.09" y="593.82"/><text fill="#000000" font-family="Tahoma, sans-serif" font-size="12" lengthAdjust="spacingAndGlyphs" textLength="38" x="1248.09" y="615.8259">Events</text><ellipse cx="260.685" cy="560.062" fill="#F8F8F8" rx="42.598" ry="13.242" style="stroke: #383838; stroke-width: 0.5;"/><text fill="#000000" font-family="Tahoma, sans-serif" font-size="12" font-weight="bold" lengthAdjust="spacingAndGlyphs" textLength="56" x="232.685" y="563.8042">frontend</text><ellipse cx="458.4362" cy="724.062" fill="#F8F8F8" rx="17.8492" ry="13.242" style="stroke: #383838; stroke-width: 0.5;"/><text fill="#000000" font-family="Tahoma, sans-serif" font-size="12" lengthAdjust="spacingAndGlyphs" textLength="21" x="447.9362" y="727.8042">grid</text><ellipse cx="260.6795" cy="718.794" fill="#F8F8F8" rx="13.5925" ry="11.474" style="stroke: #383838; stroke-width: 0.5;"/><text fill="#000000" font-family="Tahoma, sans-serif" font-size="12" lengthAdjust="spacingAndGlyphs" textLength="11" x="255.1795" y="722.5362">io</text><!--entity _IO--><rect fill="#F8F8F8" height="34.4844" rx="3" ry="3" style="stroke: #000000; stroke-width: 0.5;" width="35" x="797.087" y="398.82"/><text fill="#000000" font-family="Tahoma, sans-serif" font-size="12" lengthAdjust="spacingAndGlyphs" textLength="15" x="807.087" y="420.8259">IO</text><ellipse cx="814.7291" cy="758.062" fill="#F8F8F8" rx="17.1421" ry="13.242" style="stroke: #383838; stroke-width: 0.5;"/><text fill="#000000" font-family="Tahoma, sans-serif" font-size="12" lengthAdjust="spacingAndGlyphs" textLength="20" x="804.7291" y="761.8042">line</text><ellipse cx="458.6165" cy="411.8259" fill="#F8F8F8" rx="70.5295" ry="16.5059" style="stroke: #383838; stroke-width: 0.5;"/><text fill="#000000" font-family="Tahoma, sans-serif" font-size="12" lengthAdjust="spacingAndGlyphs" textLength="114" x="401.6165" y="415.5681">model/components</text><ellipse cx="972.5773" cy="662.8181" fill="#F8F8F8" rx="55.4903" ry="13.4981" style="stroke: #383838; stroke-width: 0.5;"/><text fill="#000000" font-family="Tahoma, sans-serif" font-size="12" lengthAdjust="spacingAndGlyphs" textLength="76" x="934.5773" y="666.5602">pointMapping</text><!--entity _render_layers--><rect fill="#F8F8F8" height="34.4844" rx="3" ry="3" style="stroke: #000000; stroke-width: 0.5;" width="95" x="767.087" y="508.82"/><text fill="#000000" font-family="Tahoma, sans-serif" font-size="12" lengthAdjust="spacingAndGlyphs" textLength="75" x="777.087" y="530.8259">render-layers</text><ellipse cx="260.776" cy="406.6578" fill="#F8F8F8" rx="67.189" ry="15.8378" style="stroke: #383838; stroke-width: 0.5;"/><text fill="#000000" font-family="Tahoma, sans-serif" font-size="12" font-weight="bold" lengthAdjust="spacingAndGlyphs" textLength="106" x="207.776" y="410.4">request-actions</text><ellipse cx="645.1642" cy="826.062" fill="#F8F8F8" rx="30.5772" ry="13.242" style="stroke: #383838; stroke-width: 0.5;"/><text fill="#000000" font-family="Tahoma, sans-serif" font-size="12" lengthAdjust="spacingAndGlyphs" textLength="39" x="625.6642" y="829.8042">socket</text><!--entity _units--><rect fill="#F8F8F8" height="34.4844" rx="3" ry="3" style="stroke: #000000; stroke-width: 0.5;" width="48" x="621.087" y="618.82"/><text fill="#000000" font-family="Tahoma, sans-serif" font-size="12" lengthAdjust="spacingAndGlyphs" textLength="28" x="631.087" y="640.8259">units</text><ellipse cx="260.7144" cy="670.062" fill="#F8F8F8" rx="25.6274" ry="13.242" style="stroke: #383838; stroke-width: 0.5;"/><text fill="#000000" font-family="Tahoma, sans-serif" font-size="12" lengthAdjust="spacingAndGlyphs" textLength="32" x="244.7144" y="673.8042">views</text><!--entity _waypoints--><rect fill="#F8F8F8" height="34.4844" rx="3" ry="3" style="stroke: #000000; stroke-width: 0.5;" width="78" x="606.087" y="702.82"/><text fill="#000000" font-family="Tahoma, sans-serif" font-size="12" lengthAdjust="spacingAndGlyphs" textLength="58" x="616.087" y="724.8259">waypoints</text><ellipse cx="1129.4956" cy="1504.065" fill="#F8F8F8" rx="33.4056" ry="13.242" style="stroke: #383838; stroke-width: 0.5;"/><text fill="#000000" font-family="Tahoma, sans-serif" font-size="12" lengthAdjust="spacingAndGlyphs" textLength="43" x="1107.9956" y="1507.8072">actions</text><!--entity _Actions--><rect fill="#F8F8F8" height="34.4844" rx="3" ry="3" style="stroke: #000000; stroke-width: 0.5;" width="63" x="1352.09" y="1280.823"/><text fill="#000000" font-family="Tahoma, sans-serif" font-size="12" lengthAdjust="spacingAndGlyphs" textLength="43" x="1362.09" y="1302.8289">Actions</text><ellipse cx="1129.7174" cy="1404.065" fill="#F8F8F8" rx="25.6274" ry="13.242" style="stroke: #383838; stroke-width: 0.5;"/><text fill="#000000" font-family="Tahoma, sans-serif" font-size="12" lengthAdjust="spacingAndGlyphs" textLength="32" x="1113.7174" y="1407.8072">Circle</text><ellipse cx="1129.5875" cy="1196.065" fill="#F8F8F8" rx="52.4975" ry="13.242" style="stroke: #383838; stroke-width: 0.5;"/><text fill="#000000" font-family="Tahoma, sans-serif" font-size="12" font-weight="bold" lengthAdjust="spacingAndGlyphs" textLength="70" x="1094.5875" y="1199.8072">common.d</text><!--entity _constants--><rect fill="#F8F8F8" height="34.4844" rx="3" ry="3" style="stroke: #000000; stroke-width: 0.5;" width="78" x="1090.59" y="1124.823"/><text fill="#000000" font-family="Tahoma, sans-serif" font-size="12" lengthAdjust="spacingAndGlyphs" textLength="58" x="1100.59" y="1146.8289">constants</text><ellipse cx="1129.6733" cy="1296.065" fill="#F8F8F8" rx="51.0833" ry="13.242" style="stroke: #383838; stroke-width: 0.5;"/><text fill="#000000" font-family="Tahoma, sans-serif" font-size="12" font-weight="bold" lengthAdjust="spacingAndGlyphs" textLength="68" x="1095.6733" y="1299.8072">frontend.d</text><ellipse cx="1129.4318" cy="1652.5964" fill="#F8F8F8" rx="13.3418" ry="11.2734" style="stroke: #383838; stroke-width: 0.5;"/><text fill="#000000" font-family="Tahoma, sans-serif" font-size="12" lengthAdjust="spacingAndGlyphs" textLength="10" x="1124.4318" y="1656.3386">id</text><ellipse cx="1518.861" cy="1566.6772" fill="#F8F8F8" rx="54.771" ry="13.3542" style="stroke: #383838; stroke-width: 0.5;"/><text fill="#000000" font-family="Tahoma, sans-serif" font-size="12" lengthAdjust="spacingAndGlyphs" textLength="74" x="1481.861" y="1570.4194">Interpolation</text><ellipse cx="1383.3535" cy="1490.065" fill="#F8F8F8" rx="19.2635" ry="13.242" style="stroke: #383838; stroke-width: 0.5;"/><text fill="#000000" font-family="Tahoma, sans-serif" font-size="12" lengthAdjust="spacingAndGlyphs" textLength="23" x="1371.8535" y="1493.8072">Map</text><ellipse cx="1519.2946" cy="1464.065" fill="#F8F8F8" rx="53.2046" ry="13.242" style="stroke: #383838; stroke-width: 0.5;"/><text fill="#000000" font-family="Tahoma, sans-serif" font-size="12" lengthAdjust="spacingAndGlyphs" textLength="71" x="1483.7946" y="1467.8072">math/Vector</text><ellipse cx="1129.6672" cy="1246.065" fill="#F8F8F8" rx="30.5772" ry="13.242" style="stroke: #383838; stroke-width: 0.5;"/><text fill="#000000" font-family="Tahoma, sans-serif" font-size="12" lengthAdjust="spacingAndGlyphs" textLength="39" x="1110.1672" y="1249.8072">names</text><ellipse cx="1267.324" cy="1580.065" fill="#F8F8F8" rx="36.234" ry="13.242" style="stroke: #383838; stroke-width: 0.5;"/><text fill="#000000" font-family="Tahoma, sans-serif" font-size="12" lengthAdjust="spacingAndGlyphs" textLength="47" x="1243.824" y="1583.8072">position</text><ellipse cx="1129.8093" cy="1604.065" fill="#F8F8F8" rx="44.7193" ry="13.242" style="stroke: #383838; stroke-width: 0.5;"/><text fill="#000000" font-family="Tahoma, sans-serif" font-size="12" lengthAdjust="spacingAndGlyphs" textLength="59" x="1100.3093" y="1607.8072">processor</text><!--entity _Queue--><rect fill="#F8F8F8" height="34.4844" rx="3" ry="3" style="stroke: #000000; stroke-width: 0.5;" width="58" x="1100.59" y="1332.823"/><text fill="#000000" font-family="Tahoma, sans-serif" font-size="12" lengthAdjust="spacingAndGlyphs" textLength="38" x="1110.59" y="1354.8289">Queue</text><ellipse cx="1129.4453" cy="1454.065" fill="#F8F8F8" rx="38.3553" ry="13.242" style="stroke: #383838; stroke-width: 0.5;"/><text fill="#000000" font-family="Tahoma, sans-serif" font-size="12" lengthAdjust="spacingAndGlyphs" textLength="50" x="1104.4453" y="1457.8072">reducers</text><!--entity _RequestActions--><rect fill="#F8F8F8" height="34.4844" rx="3" ry="3" style="stroke: #000000; stroke-width: 0.5;" width="109" x="1464.59" y="1630.823"/><text fill="#000000" font-family="Tahoma, sans-serif" font-size="12" lengthAdjust="spacingAndGlyphs" textLength="89" x="1474.59" y="1652.8289">RequestActions</text><!--entity _State--><rect fill="#F8F8F8" height="34.4844" rx="3" ry="3" style="stroke: #000000; stroke-width: 0.5;" width="50" x="1358.59" y="1074.823"/><text fill="#000000" font-family="Tahoma, sans-serif" font-size="12" lengthAdjust="spacingAndGlyphs" textLength="30" x="1368.59" y="1096.8289">State</text><!--entity _types_Vector--><rect fill="#F8F8F8" height="34.4844" rx="3" ry="3" style="stroke: #000000; stroke-width: 0.5;" width="93" x="1623.09" y="1293.823"/><text fill="#000000" font-family="Tahoma, sans-serif" font-size="12" lengthAdjust="spacingAndGlyphs" textLength="73" x="1633.09" y="1315.8289">types/Vector</text><ellipse cx="1129.5606" cy="1554.065" fill="#F8F8F8" rx="19.9706" ry="13.242" style="stroke: #383838; stroke-width: 0.5;"/><text fill="#000000" font-family="Tahoma, sans-serif" font-size="12" lengthAdjust="spacingAndGlyphs" textLength="24" x="1117.5606" y="1557.8072">utils</text><ellipse cx="1129.4453" cy="1088.065" fill="#F8F8F8" rx="38.3553" ry="13.242" style="stroke: #383838; stroke-width: 0.5;"/><text fill="#000000" font-family="Tahoma, sans-serif" font-size="12" lengthAdjust="spacingAndGlyphs" textLength="50" x="1104.4453" y="1091.8072">utils/text</text><!--entity _Waypoint--><rect fill="#F8F8F8" height="34.4844" rx="3" ry="3" style="stroke: #000000; stroke-width: 0.5;" width="73" x="1482.59" y="1314.823"/><text fill="#000000" font-family="Tahoma, sans-serif" font-size="12" lengthAdjust="spacingAndGlyphs" textLength="53" x="1492.59" y="1336.8289">Waypoint</text><!--link actions to _Actions--><path d="M1156.47,1495.881 C1165.59,1491.988 1175.26,1486.451 1182.09,1478.823 C1225.49,1430.324 1183.31,1385.02 1231.09,1340.823 C1261.16,1313.002 1280.71,1328.115 1320.09,1316.823 C1328.82,1314.317 1338.22,1311.517 1347,1308.854 " fill="none" id="actions-_Actions" style="stroke: #000000; stroke-width: 0.5; stroke-dasharray: 7.0,7.0;"/><polygon fill="#000000" points="1351.81,1307.391,1342.0383,1306.1608,1347.0231,1308.8351,1344.3488,1313.8199,1351.81,1307.391" style="stroke: #000000; stroke-width: 0.5;"/><!--link actions to _State--><path d="M1156.84,1496.198 C1166,1492.341 1175.6,1486.746 1182.09,1478.823 C1237.3,1411.322 1192.39,1366.974 1231.09,1288.823 C1259.45,1231.532 1281.22,1226.583 1320.09,1175.823 C1336.28,1154.667 1354.42,1130.199 1366.97,1113.148 " fill="none" id="actions-_State" style="stroke: #000000; stroke-width: 0.5; stroke-dasharray: 7.0,7.0;"/><polygon fill="#000000" points="1370.03,1108.979,1361.4765,1113.8613,1367.0685,1113.0076,1367.9223,1118.5997,1370.03,1108.979" style="stroke: #000000; stroke-width: 0.5;"/><!--link actions to _types_Vector--><path d="M1154.14,1494.976 C1163.38,1490.867 1173.74,1485.418 1182.09,1478.823 C1209.1,1457.471 1201.32,1436.131 1231.09,1418.823 C1364.74,1341.098 1427.67,1410.496 1574.09,1360.823 C1596.29,1353.291 1619.58,1341.021 1637.49,1330.521 " fill="none" id="actions-_types_Vector" style="stroke: #000000; stroke-width: 0.5; stroke-dasharray: 7.0,7.0;"/><polygon fill="#000000" points="1641.92,1327.894,1632.137,1329.0307,1637.6159,1330.4385,1636.2081,1335.9174,1641.92,1327.894" style="stroke: #000000; stroke-width: 0.5;"/><!--link actions to _Waypoint--><path d="M1155.92,1495.729 C1165.08,1491.798 1174.92,1486.274 1182.09,1478.823 C1219.74,1439.652 1187.5,1399.264 1231.09,1366.823 C1250.45,1352.408 1402.79,1339.892 1477.31,1334.562 " fill="none" id="actions-_Waypoint" style="stroke: #000000; stroke-width: 0.5; stroke-dasharray: 7.0,7.0;"/><polygon fill="#000000" points="1482.54,1334.191,1473.2773,1330.8439,1477.5528,1334.548,1473.8486,1338.8235,1482.54,1334.191" style="stroke: #000000; stroke-width: 0.5;"/><!--link _Actions to _types_Vector--><path d="M1415.13,1298.083 C1452.6,1298.529 1518.06,1299.715 1574.09,1302.823 C1588.29,1303.61 1603.67,1304.778 1617.81,1305.978 " fill="none" id="_Actions-_types_Vector" style="stroke: #000000; stroke-width: 0.5; stroke-dasharray: 7.0,7.0;"/><polygon fill="#000000" points="1622.96,1306.422,1614.336,1301.6653,1617.9784,1305.9934,1613.6503,1309.6358,1622.96,1306.422" style="stroke: #000000; stroke-width: 0.5;"/><!--link _Actions to _Waypoint--><path d="M1415.21,1305.623 C1433.67,1310.322 1457.39,1316.363 1477.4,1321.46 " fill="none" id="_Actions-_Waypoint" style="stroke: #000000; stroke-width: 0.5; stroke-dasharray: 7.0,7.0;"/><polygon fill="#000000" points="1482.4,1322.734,1474.676,1316.6234,1477.5568,1321.4918,1472.6884,1324.3726,1482.4,1322.734" style="stroke: #000000; stroke-width: 0.5;"/><!--link <b>app</b> to game--><path d="M240.33,766.3 C216.82,765.64 177.766,768.59 158.087,792.82 C108.039,854.44 171.103,1437.136 133.087,1506.823 C130.069,1512.354 125.236,1516.923 120.079,1520.573 " fill="none" id="&lt;b&gt;app&lt;/b&gt;-game" style="stroke: #000000; stroke-width: 1.0; stroke-dasharray: 7.0,7.0;"/><polygon fill="#000000" points="115.703,1523.425,125.427,1521.8618,119.8918,1520.6948,121.0587,1515.1597,115.703,1523.425" style="stroke: #000000; stroke-width: 1.0;"/><!--link _background to _canvas--><path d="M304.336,824.94 C316.968,821.22 329.866,814.69 339.087,804.82 C391.026,749.24 339.236,699.14 388.087,640.82 C398.531,628.35 414.522,619.87 428.534,613.14 " fill="none" id="_background-_canvas" style="stroke: #000000; stroke-width: 0.5; stroke-dasharray: 7.0,7.0;"/><polygon fill="#000000" points="433.199,610.92,423.3535,611.176,428.6843,613.0688,426.7915,618.3996,433.199,610.92" style="stroke: #000000; stroke-width: 0.5;"/><!--link _canvas to _background--><path d="M428.047,591.78 C414.154,596.07 398.41,604.5 388.087,616.82 C339.236,675.14 391.026,725.24 339.087,780.82 C329.302,791.29 315.377,798.01 302.022,803.01 " fill="none" id="_canvas-_background" style="stroke: #000000; stroke-width: 0.5; stroke-dasharray: 7.0,7.0;"/><polygon fill="#000000" points="297.137,804.78,306.9615,805.4724,301.8375,803.0755,304.2343,797.9515,297.137,804.78" style="stroke: #000000; stroke-width: 0.5;"/><!--link _background to _Events--><path d="M304.328,818.93 C365.139,814.82 480.128,807.11 578.087,800.82 C706.958,792.55 741.583,808.77 868.087,782.82 C1013.23,753.05 1050.76,739.43 1182.09,670.82 C1203.47,659.65 1225.58,643.64 1241.75,630.97 " fill="none" id="_background-_Events" style="stroke: #000000; stroke-width: 0.5; stroke-dasharray: 7.0,7.0;"/><polygon fill="#000000" points="1245.73,627.83,1236.1869,630.265,1241.8049,630.9273,1241.1426,636.5452,1245.73,627.83" style="stroke: #000000; stroke-width: 0.5;"/><!--link _background to grid--><path d="M304.359,807.29 C315.802,803.01 328.052,798.05 339.087,792.82 C376.598,775.04 417.987,749.47 440.568,734.97 " fill="none" id="_background-grid" style="stroke: #000000; stroke-width: 0.5; stroke-dasharray: 7.0,7.0;"/><polygon fill="#000000" points="444.827,732.22,435.0959,733.7385,440.6257,734.9309,439.4333,740.4606,444.827,732.22" style="stroke: #000000; stroke-width: 0.5;"/><!--link _background to _render_layers--><path d="M304.466,812 C316.671,807.65 329.294,801.48 339.087,792.82 C374.377,761.61 354.283,731.64 388.087,698.82 C421.745,666.15 533.847,622.43 578.087,606.82 C635.733,586.49 654.509,596.35 712.087,575.82 C734.943,567.67 759.375,555.75 778.54,545.58 " fill="none" id="_background-_render_layers" style="stroke: #000000; stroke-width: 0.5; stroke-dasharray: 7.0,7.0;"/><polygon fill="#000000" points="783.295,543.04,773.4728,543.7641,778.8876,545.4011,777.2506,550.8159,783.295,543.04" style="stroke: #000000; stroke-width: 0.5;"/><!--link _background to _State--><path d="M304.175,814.84 C317.265,810.6 330.477,803.78 339.087,792.82 C452.198,648.87 293.352,540.48 388.087,383.82 C459.533,265.67 506.014,207.82 644.087,207.82 C644.087,207.82 644.087,207.82 815.587,207.82 C1060.2,207.82 1178.32,228.48 1320.09,427.82 C1358.07,481.24 1377.76,959.62 1381.8,1069.426 " fill="none" id="_background-_State" style="stroke: #000000; stroke-width: 0.5;"/><polygon fill="#000000" points="1381.99,1074.668,1385.6584,1065.5278,1381.8073,1069.6713,1377.6637,1065.8202,1381.99,1074.668" style="stroke: #000000; stroke-width: 0.5;"/><!--link _canvas to _Events--><path d="M489.174,580.6 C542.302,557.71 657.959,511.72 761.087,496.82 C808.153,490.02 824.781,477.17 868.087,496.82 C898.203,510.49 888.196,536.73 917.087,552.82 C944.519,568.11 1150.85,595.99 1232.74,606.58 " fill="none" id="_canvas-_Events" style="stroke: #000000; stroke-width: 0.5; stroke-dasharray: 7.0,7.0;"/><polygon fill="#000000" points="1237.95,607.25,1229.5392,602.1258,1232.9915,606.607,1228.5103,610.0593,1237.95,607.25" style="stroke: #000000; stroke-width: 0.5;"/><!--link _canvas to _IO--><path d="M475.643,576.45 C497.059,554.22 537.058,515.82 578.087,492.82 C651.101,451.89 749.183,428.7 792.038,419.92 " fill="none" id="_canvas-_IO" style="stroke: #000000; stroke-width: 0.5; stroke-dasharray: 7.0,7.0;"/><polygon fill="#000000" points="796.985,418.92,787.3711,416.7816,792.084,419.9102,788.9554,424.6231,796.985,418.92" style="stroke: #000000; stroke-width: 0.5;"/><!--link _canvas to pointMapping--><path d="M471.474,610.82 C491.859,631.48 535.424,662.99 578.087,676.82 C639.483,696.73 803.783,698.37 868.087,692.82 C896.18,690.4 928.09,684.34 948.96,677.27 " fill="none" id="_canvas-pointMapping" style="stroke: #000000; stroke-width: 0.5; stroke-dasharray: 7.0,7.0;"/><polygon fill="#000000" points="953.759,675.56,943.9379,674.8212,949.0505,677.2422,946.6295,682.3548,953.759,675.56" style="stroke: #000000; stroke-width: 0.5;"/><!--link pointMapping to _canvas--><path d="M917.028,662.61 C901.304,664.88 884.077,667.44 868.087,668.82 C803.783,674.37 639.483,672.73 578.087,652.82 C547.501,642.91 516.452,623.91 493.813,609.78 " fill="none" id="pointMapping-_canvas" style="stroke: #000000; stroke-width: 0.5; stroke-dasharray: 7.0,7.0;"/><polygon fill="#000000" points="489.4,607.02,494.9145,615.1803,493.6408,609.6687,499.1524,608.395,489.4,607.02" style="stroke: #000000; stroke-width: 0.5;"/><!--link _canvas to _render_layers--><path d="M489.159,588.14 C549.283,576.59 686.446,550.25 761.74,535.78 " fill="none" id="_canvas-_render_layers" style="stroke: #000000; stroke-width: 0.5; stroke-dasharray: 7.0,7.0;"/><polygon fill="#000000" points="767.052,534.76,757.4583,532.5326,762.1421,535.7048,758.9699,540.3885,767.052,534.76" style="stroke: #000000; stroke-width: 0.5;"/><!--link _canvas to _State--><path d="M470.676,576.54 C489.578,548.33 530.629,492.18 578.087,458.82 C798.655,303.8 925.103,321.33 1182.09,402.82 C1248.63,423.92 1282.53,418.98 1320.09,477.82 C1350.34,525.21 1342.68,927.39 1352.09,982.82 C1357.29,1013.49 1367.72,1047.913 1374.93,1069.717 " fill="none" id="_canvas-_State" style="stroke: #000000; stroke-width: 0.5;"/><polygon fill="#000000" points="1376.59,1074.709,1377.5351,1064.9056,1375.0071,1069.9662,1369.9466,1067.4382,1376.59,1074.709" style="stroke: #000000; stroke-width: 0.5;"/><!--link _canvas to _units--><path d="M489.23,600.57 C524.038,608.49 581.364,621.54 615.644,629.35 " fill="none" id="_canvas-_units" style="stroke: #000000; stroke-width: 0.5; stroke-dasharray: 7.0,7.0;"/><polygon fill="#000000" points="620.941,630.55,613.0546,624.6505,616.066,629.4392,611.2773,632.4506,620.941,630.55" style="stroke: #000000; stroke-width: 0.5;"/><!--link _canvas to _waypoints--><path d="M479.796,611.02 C502.792,630.19 541.864,661.54 578.087,684.82 C586.372,690.15 595.549,695.39 604.36,700.14 " fill="none" id="_canvas-_waypoints" style="stroke: #000000; stroke-width: 0.5; stroke-dasharray: 7.0,7.0;"/><polygon fill="#000000" points="609.209,702.72,603.1528,694.9533,604.798,700.3656,599.3857,702.0108,609.209,702.72" style="stroke: #000000; stroke-width: 0.5;"/><!--link circle to pointMapping--><path d="M839.62,656.9 C859.09,657.77 887.36,659.04 912.745,660.18 " fill="none" id="circle-pointMapping" style="stroke: #000000; stroke-width: 0.5; stroke-dasharray: 7.0,7.0;"/><polygon fill="#000000" points="917.78,660.41,908.9689,656.0096,912.7851,660.1853,908.6093,664.0015,917.78,660.41" style="stroke: #000000; stroke-width: 0.5;"/><!--link circle to _types_Vector--><path d="M835.399,648.44 C936.386,612.22 1396,464.52 1574.09,705.82 C1644.56,801.31 1663.99,1190.459 1667.8,1288.377 " fill="none" id="circle-_types_Vector" style="stroke: #000000; stroke-width: 0.5;"/><polygon fill="#000000" points="1668,1293.615,1671.6554,1284.4696,1667.8101,1288.6186,1663.6611,1284.7734,1668,1293.615" style="stroke: #000000; stroke-width: 0.5;"/><!--link controller/components to model/components--><path d="M314.122,601.61 C323.318,597.43 332.147,591.96 339.087,584.82 C384.456,538.16 345.037,495.64 388.087,446.82 C394.998,438.99 404.077,432.69 413.383,427.72 " fill="none" id="controller/components-model/components" style="stroke: #000000; stroke-width: 0.5; stroke-dasharray: 7.0,7.0;"/><polygon fill="#000000" points="417.961,425.38,408.1267,425.9154,413.5091,427.6561,411.7684,433.0384,417.961,425.38" style="stroke: #000000; stroke-width: 0.5;"/><!--link controller/sockets to id--><path d="M709.165,1621.529 C820.475,1629.834 1046.12,1646.669 1110.86,1651.5 " fill="none" id="controller/sockets-id" style="stroke: #000000; stroke-width: 0.5;"/><polygon fill="#000000" points="1115.93,1651.878,1107.252,1647.2204,1110.9438,1651.5065,1106.6577,1655.1983,1115.93,1651.878" style="stroke: #000000; stroke-width: 0.5;"/><!--link controller/sockets to _model_sockets--><path d="M687.062,1604.347 C707.858,1598.014 733.465,1590.218 756.19,1583.299 " fill="none" id="controller/sockets-_model_sockets" style="stroke: #000000; stroke-width: 0.5; stroke-dasharray: 7.0,7.0;"/><polygon fill="#000000" points="760.992,1581.836,751.2169,1580.6325,756.209,1583.2932,753.5484,1588.2853,760.992,1581.836" style="stroke: #000000; stroke-width: 0.5;"/><!--link dispatcher to _model_sockets--><path d="M498.483,1514.195 C560.75,1524.397 683.161,1544.453 755.721,1556.342 " fill="none" id="dispatcher-_model_sockets" style="stroke: #000000; stroke-width: 0.5; stroke-dasharray: 7.0,7.0;"/><polygon fill="#000000" points="760.857,1557.183,752.6223,1551.7802,755.9228,1556.3744,751.3286,1559.675,760.857,1557.183" style="stroke: #000000; stroke-width: 0.5;"/><!--link dispatcher to state--><path d="M495.93,1515.336 C567.278,1521.963 730.69,1525.318 868.087,1528.823 C895.918,1529.532 927.956,1530.481 948.924,1528.463 " fill="none" id="dispatcher-state" style="stroke: #000000; stroke-width: 0.5;"/><polygon fill="#000000" points="954.007,1527.884,944.6123,1524.9278,949.0391,1528.4496,945.5173,1532.8765,954.007,1527.884" style="stroke: #000000; stroke-width: 0.5;"/><!--link dispatcher to state--><path d="M498.737,1501.598 C571.49,1498.049 732.463,1501.363 868.087,1504.823 C896.415,1505.545 929.101,1506.515 950.036,1509.956 " fill="none" id="dispatcher-state-1" style="stroke: #000000; stroke-width: 0.5; stroke-dasharray: 7.0,7.0;"/><polygon fill="#000000" points="955.096,1510.886,946.9664,1505.3264,950.1782,1509.983,945.5216,1513.1949,955.096,1510.886" style="stroke: #000000; stroke-width: 0.5;"/><!--link <b>dispatcher</b> to _RequestActions--><path d="M306.534,503.53 C318.514,499.84 330.498,494.02 339.087,484.82 C400.67,418.89 337.077,362.24 388.087,287.82 C466.722,173.1 504.999,107.82 644.087,107.82 C644.087,107.82 644.087,107.82 1130.59,107.82 C1269.66,107.82 1264.31,229.43 1320.09,356.82 C1417.46,579.25 1385.43,653.83 1415.09,894.82 C1434.08,1049.151 1400.24,1451.044 1464.09,1592.823 C1470.06,1606.08 1480.69,1617.992 1490.95,1627.312 " fill="none" id="&lt;b&gt;dispatcher&lt;/b&gt;-_RequestActions" style="stroke: #000000; stroke-width: 1.0;"/><polygon fill="#000000" points="1494.7,1630.626,1490.607,1621.6679,1490.9541,1627.3141,1485.308,1627.6613,1494.7,1630.626" style="stroke: #000000; stroke-width: 1.0;"/><!--link <b>dispatcher</b> to socket--><path d="M307.048,516.14 C318.895,519.83 330.68,525.65 339.087,534.82 C405.017,606.75 321.445,677.55 388.087,748.82 C446.586,811.38 553.78,823.76 609.061,825.8 " fill="none" id="&lt;b&gt;dispatcher&lt;/b&gt;-socket" style="stroke: #000000; stroke-width: 1.0; stroke-dasharray: 7.0,7.0;"/><polygon fill="#000000" points="614.245,825.96,605.3775,821.6742,609.2476,825.8001,605.1217,829.6701,614.245,825.96" style="stroke: #000000; stroke-width: 1.0;"/><!--link drawing/text to pointMapping--><path d="M837.607,591.54 C865.509,606.38 913.613,631.98 943.953,648.12 " fill="none" id="drawing/text-pointMapping" style="stroke: #000000; stroke-width: 0.5; stroke-dasharray: 7.0,7.0;"/><polygon fill="#000000" points="948.664,650.63,942.5973,642.8714,944.2499,648.2815,938.8398,649.934,948.664,650.63" style="stroke: #000000; stroke-width: 0.5;"/><!--link drawing/text to _types_Vector--><path d="M844.199,569.04 C852.362,565.23 860.965,560.46 868.087,554.82 C1089.9,379.09 983.1,57.82 1266.09,57.82 C1266.09,57.82 1266.09,57.82 1384.59,57.82 C1647.44,57.82 1667.02,1119.899 1668.47,1288.415 " fill="none" id="drawing/text-_types_Vector" style="stroke: #000000; stroke-width: 0.5;"/><polygon fill="#000000" points="1668.51,1293.587,1672.4379,1284.5553,1668.47,1288.5872,1664.4381,1284.6193,1668.51,1293.587" style="stroke: #000000; stroke-width: 0.5;"/><!--link frontend to _constants--><path d="M98.5042,1468.653 C103.8311,1421.513 124.097,1262.064 158.087,1225.823 C253.345,1124.253 318.337,1133.823 457.587,1133.823 C457.587,1133.823 457.587,1133.823 815.587,1133.823 C911.884,1133.823 1024.79,1137.654 1085.21,1140.013 " fill="none" id="frontend-_constants" style="stroke: #000000; stroke-width: 0.5;"/><polygon fill="#000000" points="1090.53,1140.223,1081.6848,1135.8914,1085.5335,1140.0373,1081.3876,1143.8859,1090.53,1140.223" style="stroke: #000000; stroke-width: 0.5;"/><!--link <b>frontend</b> to bundle--><path d="M217.942,560.53 C190.176,558.31 157.058,549.74 145.587,522.82 C138.615,506.47 142.502,493.38 158.087,484.82 C179.105,473.28 205.429,467.01 226.138,463.63 " fill="none" id="&lt;b&gt;frontend&lt;/b&gt;-bundle" style="stroke: #000000; stroke-width: 1.0; stroke-dasharray: 7.0,7.0;"/><polygon fill="#000000" points="231.275,462.83,221.768,460.2576,226.3342,463.5968,222.9949,468.163,231.275,462.83" style="stroke: #000000; stroke-width: 1.0;"/><!--link <b>frontend</b> to _constants--><path d="M300.102,554.83 C313.939,551.28 328.681,545.21 339.087,534.82 C389.021,484.98 333.185,428.14 388.087,383.82 C477.076,311.99 529.723,357.82 644.087,357.82 C644.087,357.82 644.087,357.82 815.587,357.82 C945.688,357.82 979.322,485.61 1028.09,637.82 C1044.21,688.15 1022.02,1070.066 1053.09,1112.823 C1060.81,1123.453 1072.98,1130.186 1085.3,1134.452 " fill="none" id="&lt;b&gt;frontend&lt;/b&gt;-_constants" style="stroke: #000000; stroke-width: 1.0;"/><polygon fill="#000000" points="1090.21,1136.023,1082.8456,1129.4835,1085.4452,1134.5076,1080.421,1137.1072,1090.21,1136.023" style="stroke: #000000; stroke-width: 1.0;"/><!--link <b>frontend</b> to controller/components--><path d="M260.587,573.1 C260.587,579.27 260.587,585.43 260.587,591.6 " fill="none" id="&lt;b&gt;frontend&lt;/b&gt;-controller/components" style="stroke: #000000; stroke-width: 1.0; stroke-dasharray: 7.0,7.0;"/><polygon fill="#000000" points="260.587,596.78,264.587,587.78,260.587,591.78,256.587,587.78,260.587,596.78" style="stroke: #000000; stroke-width: 1.0;"/><!--link <b>frontend</b> to views--><path d="M220.851,564.54 C201.08,568.09 177.354,574.24 158.087,584.82 C138.763,595.43 136.943,612.54 145.587,632.82 C158.747,663.7 200.397,670.43 229.772,671.14 " fill="none" id="&lt;b&gt;frontend&lt;/b&gt;-views" style="stroke: #000000; stroke-width: 1.0; stroke-dasharray: 7.0,7.0;"/><polygon fill="#000000" points="235.105,671.21,226.156,667.0972,230.1054,671.1471,226.0554,675.0966,235.105,671.21" style="stroke: #000000; stroke-width: 1.0;"/><!--link game to dispatcher--><path d="M115.592,1523.287 C127.457,1518.286 143.346,1512.45 158.087,1509.823 C245.791,1494.188 350.249,1498.585 409.752,1503.203 " fill="none" id="game-dispatcher" style="stroke: #000000; stroke-width: 0.5; stroke-dasharray: 7.0,7.0;"/><polygon fill="#000000" points="415.016,1503.622,406.3608,1498.9223,410.0317,1503.2263,405.7277,1506.8972,415.016,1503.622" style="stroke: #000000; stroke-width: 0.5;"/><!--link game to id--><path d="M115.205,1523.13 C121.821,1519.071 128.74,1513.617 133.087,1506.823 C167.615,1452.839 111.191,1408.495 158.087,1364.823 C256.018,1273.621 323.764,1333.823 457.587,1333.823 C457.587,1333.823 457.587,1333.823 815.587,1333.823 C911.031,1333.823 962.321,1295.653 1028.09,1364.823 C1068.69,1407.529 1016.09,1582.953 1053.09,1628.823 C1066.94,1645.995 1093.07,1651.07 1110.66,1652.466 " fill="none" id="game-id" style="stroke: #000000; stroke-width: 0.5;"/><polygon fill="#000000" points="1115.82,1652.79,1107.0892,1648.2322,1110.8299,1652.4757,1106.5864,1656.2164,1115.82,1652.79" style="stroke: #000000; stroke-width: 0.5;"/><!--link game to manipulation--><path d="M121.767,1532.278 C142.663,1532.664 173.469,1533.233 200.66,1533.735 " fill="none" id="game-manipulation" style="stroke: #000000; stroke-width: 0.5; stroke-dasharray: 7.0,7.0;"/><polygon fill="#000000" points="205.692,1533.828,196.7678,1529.6616,200.6929,1533.7352,196.6193,1537.6602,205.692,1533.828" style="stroke: #000000; stroke-width: 0.5;"/><!--link game to names--><path d="M115.443,1523.277 C122.092,1519.238 128.972,1513.76 133.087,1506.823 C159.652,1462.033 121.744,1311.119 158.087,1273.823 C251.809,1177.642 323.293,1233.823 457.587,1233.823 C457.587,1233.823 457.587,1233.823 815.587,1233.823 C916.938,1233.823 1036.61,1240.183 1094.21,1243.642 " fill="none" id="game-names" style="stroke: #000000; stroke-width: 0.5;"/><polygon fill="#000000" points="1099.26,1243.948,1090.5163,1239.4151,1094.269,1243.6479,1090.0362,1247.4007,1099.26,1243.948" style="stroke: #000000; stroke-width: 0.5;"/><!--link game to path--><path d="M113.63,1541.367 C125.601,1547.849 142.371,1556.077 158.087,1560.823 C235.888,1584.313 259.179,1572.005 339.087,1586.823 C372.401,1593 410.546,1602.051 434.354,1607.94 " fill="none" id="game-path" style="stroke: #000000; stroke-width: 0.5; stroke-dasharray: 7.0,7.0;"/><polygon fill="#000000" points="439.21,1609.147,431.44,1603.0949,434.3575,1607.9414,429.5111,1610.8589,439.21,1609.147" style="stroke: #000000; stroke-width: 0.5;"/><!--link game to _Queue--><path d="M115.351,1523.221 C121.987,1519.175 128.882,1513.706 133.087,1506.823 C176.796,1435.266 98.403,1378.719 158.087,1319.823 C253.515,1225.653 323.517,1283.823 457.587,1283.823 C457.587,1283.823 457.587,1283.823 815.587,1283.823 C919.629,1283.823 1039.02,1319.169 1095.58,1338.128 " fill="none" id="game-_Queue" style="stroke: #000000; stroke-width: 0.5;"/><polygon fill="#000000" points="1100.52,1339.799,1093.2552,1333.149,1095.7786,1338.2119,1090.7157,1340.7353,1100.52,1339.799" style="stroke: #000000; stroke-width: 0.5;"/><!--link game to _RequestActions--><path d="M114.788,1540.8 C121.347,1544.898 128.335,1550.305 133.087,1556.823 C155.529,1587.612 140.457,1605.046 158.087,1638.823 C257.752,1829.765 242.198,2019.8225 457.587,2019.8225 C457.587,2019.8225 457.587,2019.8225 815.587,2019.8225 C1085.36,2019.8225 1206.34,2095.7024 1415.09,1924.823 C1435.89,1907.792 1491.68,1732.949 1511.21,1670.138 " fill="none" id="game-_RequestActions" style="stroke: #000000; stroke-width: 0.5;"/><polygon fill="#000000" points="1512.77,1665.113,1506.2792,1672.5204,1511.2861,1669.8877,1513.9188,1674.8946,1512.77,1665.113" style="stroke: #000000; stroke-width: 0.5;"/><!--link game to socket-events--><path d="M103.4171,1544.392 C110.782,1552.489 123.195,1560.725 133.087,1568.823 C145.005,1578.579 144.838,1584.967 158.087,1592.823 C170.33,1600.082 184.397,1605.87 198.08,1610.088 " fill="none" id="game-socket-events" style="stroke: #000000; stroke-width: 0.5; stroke-dasharray: 7.0,7.0;"/><polygon fill="#000000" points="203.1,1611.571,195.6025,1605.1845,198.305,1610.1541,193.3354,1612.8565,203.1,1611.571" style="stroke: #000000; stroke-width: 0.5;"/><!--link socket-events to game--><path d="M237.796,1599.85 C216.391,1592.521 183.356,1583.806 158.087,1568.823 C144.838,1560.967 145.005,1554.579 133.087,1544.823 C130.536,1542.735 127.818,1540.638 125.063,1538.653 " fill="none" id="socket-events-game" style="stroke: #000000; stroke-width: 0.5; stroke-dasharray: 7.0,7.0;"/><polygon fill="#000000" points="120.72,1535.643,125.8405,1544.0561,124.8301,1538.4902,130.396,1537.4799,120.72,1535.643" style="stroke: #000000; stroke-width: 0.5;"/><!--link game to state--><path d="M99.4522,1544.881 C107.247,1559.739 133.055,1540.315 158.087,1532.823 C256.197,1503.454 285.722,1521.935 388.087,1518.823 C601.61,1512.33 655.418,1523.661 868.087,1543.823 C904.752,1547.298 948.563,1552.836 964.962,1536.847 " fill="none" id="game-state" style="stroke: #000000; stroke-width: 0.5;"/><polygon fill="#000000" points="968.197,1532.839,959.4314,1537.3294,965.0563,1536.7295,965.6562,1542.3545,968.197,1532.839" style="stroke: #000000; stroke-width: 0.5;"/><!--link game to state--><path d="M119.405,1526.55 C130.484,1520.582 144.401,1512.919 158.087,1508.823 C256.197,1479.454 285.722,1497.935 388.087,1494.823 C601.61,1488.33 655.418,1499.661 868.087,1519.823 C894.981,1522.372 925.72,1526.031 946.665,1526.255 " fill="none" id="game-state-1" style="stroke: #000000; stroke-width: 0.5; stroke-dasharray: 7.0,7.0;"/><polygon fill="#000000" points="951.771,1526.235,942.7551,1522.271,946.771,1526.255,942.7871,1530.271,951.771,1526.235" style="stroke: #000000; stroke-width: 0.5;"/><!--link game to state--><path d="M103.7406,1519.059 C114.468,1506.527 136.564,1491.265 158.087,1484.823 C256.197,1455.454 285.722,1473.935 388.087,1470.823 C601.61,1464.33 655.418,1475.661 868.087,1495.823 C897.471,1498.608 931.445,1502.718 952.22,1508.44 " fill="none" id="game-state-2" style="stroke: #000000; stroke-width: 0.5;"/><polygon fill="#000000" points="957.207,1509.929,949.7286,1503.5202,952.4162,1508.4978,947.4386,1511.1854,957.207,1509.929" style="stroke: #000000; stroke-width: 0.5;"/><!--link game to state--><path d="M98.4794,1518.803 C104.8331,1489.58 131.886,1468.666 158.087,1460.823 C256.197,1431.454 285.722,1449.935 388.087,1446.823 C601.61,1440.33 655.418,1451.661 868.087,1471.823 C905.566,1475.376 950.513,1481.083 966.014,1502.438 " fill="none" id="game-state-3" style="stroke: #000000; stroke-width: 0.5; stroke-dasharray: 7.0,7.0;"/><polygon fill="#000000" points="968.71,1506.921,967.5023,1497.1465,966.1344,1502.6354,960.6454,1501.2675,968.71,1506.921" style="stroke: #000000; stroke-width: 0.5;"/><!--link game to io--><path d="M115.711,1523.429 C122.397,1519.412 129.232,1513.908 133.087,1506.823 C173.676,1432.215 104.3075,808.56 158.087,742.82 C178.254,718.17 218.626,716.06 241.917,717.16 " fill="none" id="game-io" style="stroke: #000000; stroke-width: 0.5; stroke-dasharray: 7.0,7.0;"/><polygon fill="#000000" points="247.17,717.48,238.4265,712.9467,242.179,717.1797,237.946,720.9322,247.17,717.48" style="stroke: #000000; stroke-width: 0.5;"/><!--link game to socket--><path d="M115.52,1523.322 C122.18,1519.29 129.047,1513.804 133.087,1506.823 C198.327,1394.086 96.7166,1329.711 158.087,1214.823 C267.283,1010.4 534.565,875.49 618.459,837.08 " fill="none" id="game-socket" style="stroke: #000000; stroke-width: 0.5; stroke-dasharray: 7.0,7.0;"/><polygon fill="#000000" points="623.019,835.01,613.1706,835.1044,618.4696,837.0844,616.4896,842.3834,623.019,835.01" style="stroke: #000000; stroke-width: 0.5;"/><!--link game to _State--><path d="M113.001,1521.763 C119.449,1517.437 126.833,1512.154 133.087,1506.823 C145.285,1496.422 144.497,1489.326 158.087,1480.823 C276.699,1406.606 317.668,1383.823 457.587,1383.823 C457.587,1383.823 457.587,1383.823 815.587,1383.823 C915.741,1383.823 965.669,1380.497 1028.09,1458.823 C1058.48,1496.957 1016.7,1644.366 1053.09,1676.823 C1095.87,1714.984 1126.4,1690.476 1182.09,1676.823 C1249.28,1660.349 1281.46,1662.213 1320.09,1604.823 C1361.97,1542.6 1342.16,1343.167 1352.09,1268.823 C1359.57,1212.787 1371.75,1147.345 1378.22,1113.926 " fill="none" id="game-_State" style="stroke: #000000; stroke-width: 0.5;"/><polygon fill="#000000" points="1379.21,1108.843,1373.5677,1116.9155,1378.2569,1113.7513,1381.421,1118.4405,1379.21,1108.843" style="stroke: #000000; stroke-width: 0.5;"/><!--link grid to line--><path d="M475.924,728.19 C498.643,734.05 541.152,744.25 578.087,748.82 C656.746,758.55 751.208,758.71 792.517,758.21 " fill="none" id="grid-line" style="stroke: #000000; stroke-width: 0.5; stroke-dasharray: 7.0,7.0;"/><polygon fill="#000000" points="797.521,758.14,788.4692,754.2586,792.5214,758.2057,788.5743,762.2579,797.521,758.14" style="stroke: #000000; stroke-width: 0.5;"/><!--link io to _canvas--><path d="M274.191,717.37 C290.471,714.98 319.086,708.99 339.087,694.82 C368.9,673.71 360.128,652.34 388.087,628.82 C398.491,620.07 411.456,612.79 423.361,607.18 " fill="none" id="io-_canvas" style="stroke: #000000; stroke-width: 0.5; stroke-dasharray: 7.0,7.0;"/><polygon fill="#000000" points="428.037,605.03,418.1889,605.15,423.493,607.1162,421.5268,612.4204,428.037,605.03" style="stroke: #000000; stroke-width: 0.5;"/><!--link io to _Events--><path d="M274.274,718.23 C291.175,716.79 321.038,711.82 339.087,694.82 C384.04,652.49 341.928,605.83 388.087,564.82 C514.903,452.15 592.16,499.38 761.087,483.82 C952.491,466.19 999.245,523.53 1182.09,582.82 C1198.77,588.23 1217.27,594.38 1232.65,599.54 " fill="none" id="io-_Events" style="stroke: #000000; stroke-width: 0.5; stroke-dasharray: 7.0,7.0;"/><polygon fill="#000000" points="1237.74,601.25,1230.4969,594.5764,1233.0038,599.6474,1227.9327,602.1543,1237.74,601.25" style="stroke: #000000; stroke-width: 0.5;"/><!--link io to _IO--><path d="M274.35,718.62 C291.619,717.62 322.205,713.17 339.087,694.82 C407.505,620.47 313.7,541.2 388.087,472.82 C418.153,445.18 708.659,423.09 791.587,417.3 " fill="none" id="io-_IO" style="stroke: #000000; stroke-width: 0.5; stroke-dasharray: 7.0,7.0;"/><polygon fill="#000000" points="796.744,416.95,787.4889,413.5822,791.756,417.2959,788.0423,421.563,796.744,416.95" style="stroke: #000000; stroke-width: 0.5;"/><!--link _IO to _State--><path d="M832.178,413.2 C905.423,402.68 1201.43,371.54 1320.09,533.82 C1349.61,574.2 1343.53,933.55 1352.09,982.82 C1357.41,1013.47 1367.81,1047.897 1374.98,1069.708 " fill="none" id="_IO-_State" style="stroke: #000000; stroke-width: 0.5;"/><polygon fill="#000000" points="1376.63,1074.702,1377.5911,1064.9001,1375.0549,1069.9566,1369.9984,1067.4204,1376.63,1074.702" style="stroke: #000000; stroke-width: 0.5;"/><!--link line to pointMapping--><path d="M828.353,750.05 C854.19,734.31 913.074,698.46 946.746,677.95 " fill="none" id="line-pointMapping" style="stroke: #000000; stroke-width: 0.5; stroke-dasharray: 7.0,7.0;"/><polygon fill="#000000" points="951.123,675.28,941.3554,676.5427,946.852,677.8797,945.515,683.3763,951.123,675.28" style="stroke: #000000; stroke-width: 0.5;"/><!--link line to _types_Vector--><path d="M831.949,758.2 C890.677,759.51 1096.35,763.82 1266.09,763.82 C1266.09,763.82 1266.09,763.82 1384.59,763.82 C1625.05,763.82 1662.19,1185.35 1667.67,1288.331 " fill="none" id="line-_types_Vector" style="stroke: #000000; stroke-width: 0.5;"/><polygon fill="#000000" points="1667.94,1293.548,1671.4764,1284.3559,1667.6853,1288.5545,1663.4868,1284.7634,1667.94,1293.548" style="stroke: #000000; stroke-width: 0.5;"/><!--link manipulation to dispatcher--><path d="M309.033,1528.287 C340.305,1523.979 381.036,1518.368 411.937,1514.111 " fill="none" id="manipulation-dispatcher" style="stroke: #000000; stroke-width: 0.5; stroke-dasharray: 7.0,7.0;"/><polygon fill="#000000" points="417.198,1513.386,407.736,1510.6527,412.2449,1514.0689,408.8287,1518.5777,417.198,1513.386" style="stroke: #000000; stroke-width: 0.5;"/><!--link manipulation to id--><path d="M282.888,1547.311 C298.99,1557.17 321.287,1571.737 339.087,1586.823 C363.312,1607.353 361.195,1621.934 388.087,1638.823 C489.147,1702.29 524.749,1719.823 644.087,1719.823 C644.087,1719.823 644.087,1719.823 815.587,1719.823 C931.166,1719.823 1065.54,1675.599 1111.88,1659.009 " fill="none" id="manipulation-id" style="stroke: #000000; stroke-width: 0.5;"/><polygon fill="#000000" points="1116.84,1657.219,1107.0162,1656.5168,1112.1378,1658.9188,1109.7358,1664.0403,1116.84,1657.219" style="stroke: #000000; stroke-width: 0.5;"/><!--link manipulation to path--><path d="M290.087,1546.31 C329.654,1562.258 400.363,1590.758 435.916,1605.088 " fill="none" id="manipulation-path" style="stroke: #000000; stroke-width: 0.5; stroke-dasharray: 7.0,7.0;"/><polygon fill="#000000" points="440.899,1607.096,434.0481,1600.0203,436.2619,1605.226,431.0561,1607.4397,440.899,1607.096" style="stroke: #000000; stroke-width: 0.5;"/><!--link manipulation to _RequestActions--><path d="M287.275,1546.842 C304.011,1555.806 325.232,1569.479 339.087,1586.823 C376.847,1634.092 346.922,1669.486 388.087,1713.823 C570.738,1910.544 703.145,1869.823 971.587,1869.823 C971.587,1869.823 971.587,1869.823 1268.09,1869.823 C1337.1,1869.823 1361.41,1863.191 1415.09,1819.823 C1465.54,1779.064 1497.11,1706.514 1510.56,1670.047 " fill="none" id="manipulation-_RequestActions" style="stroke: #000000; stroke-width: 0.5;"/><polygon fill="#000000" points="1512.42,1664.936,1505.5915,1672.0333,1510.7155,1669.6365,1513.1124,1674.7605,1512.42,1664.936" style="stroke: #000000; stroke-width: 0.5;"/><!--link manipulation to state--><path d="M304.213,1543.215 C357.004,1546.686 449.684,1546.286 529.087,1544.823 C687.857,1541.897 878.589,1535.226 946.266,1526.452 " fill="none" id="manipulation-state" style="stroke: #000000; stroke-width: 0.5;"/><polygon fill="#000000" points="951.302,1525.762,941.8423,1523.0207,946.3483,1526.4407,942.9282,1530.9466,951.302,1525.762" style="stroke: #000000; stroke-width: 0.5;"/><!--link manipulation to state--><path d="M303.751,1526.4 C356.462,1522.689 449.452,1522.29 529.087,1520.823 C687.108,1517.911 876.79,1511.288 945.3,1515.016 " fill="none" id="manipulation-state-1" style="stroke: #000000; stroke-width: 0.5; stroke-dasharray: 7.0,7.0;"/><polygon fill="#000000" points="950.405,1515.329,941.6664,1510.7863,945.4144,1515.0233,941.1773,1518.7713,950.405,1515.329" style="stroke: #000000; stroke-width: 0.5;"/><!--link math/Vector to _types_Vector--><path d="M1544.53,1452.407 C1554.3,1447.205 1565.28,1440.489 1574.09,1432.823 C1608.66,1402.719 1639.23,1358.357 1655.71,1332.244 " fill="none" id="math/Vector-_types_Vector" style="stroke: #000000; stroke-width: 0.5; stroke-dasharray: 7.0,7.0;"/><polygon fill="#000000" points="1658.42,1327.901,1650.25,1333.4011,1655.7638,1332.1371,1657.0278,1337.651,1658.42,1327.901" style="stroke: #000000; stroke-width: 0.5;"/><!--link path to Circle--><path d="M476.893,1607.453 C537.152,1585.385 743.537,1510.713 917.087,1458.823 C982.488,1439.268 1060.43,1420.032 1100.98,1410.327 " fill="none" id="path-Circle" style="stroke: #000000; stroke-width: 0.5;"/><polygon fill="#000000" points="1106.21,1409.078,1096.5285,1407.2701,1101.3458,1410.2355,1098.3804,1415.0528,1106.21,1409.078" style="stroke: #000000; stroke-width: 0.5;"/><!--link path to math/Vector--><path d="M469.338,1624.898 C508.151,1667.686 657.151,1819.823 813.587,1819.823 C813.587,1819.823 813.587,1819.823 1268.09,1819.823 C1336.95,1819.823 1369.17,1822.144 1415.09,1770.823 C1484.49,1693.258 1422.77,1637.354 1464.09,1541.823 C1474.01,1518.885 1491.14,1495.736 1503.45,1480.684 " fill="none" id="path-math/Vector" style="stroke: #000000; stroke-width: 0.5;"/><polygon fill="#000000" points="1506.78,1476.661,1497.9617,1481.0472,1503.5934,1480.514,1504.1266,1486.1457,1506.78,1476.661" style="stroke: #000000; stroke-width: 0.5;"/><!--link path to _types_Vector--><path d="M463.954,1626.627 C476.247,1660.741 514.448,1754.567 578.087,1803.823 C831.534,1999.9871 945.593,2019.8225 1266.09,2019.8225 C1266.09,2019.8225 1266.09,2019.8225 1384.59,2019.8225 C1536.31,2019.8225 1643.72,1453.244 1664.8,1333.058 " fill="none" id="path-_types_Vector" style="stroke: #000000; stroke-width: 0.5;"/><polygon fill="#000000" points="1665.68,1327.997,1660.1925,1336.1755,1664.8205,1332.9226,1668.0734,1337.5506,1665.68,1327.997" style="stroke: #000000; stroke-width: 0.5;"/><!--link path to _Waypoint--><path d="M477.607,1619.023 C587.747,1650.377 1170.34,1809.923 1320.09,1720.823 C1441.03,1648.865 1403.08,1565.638 1464.09,1438.823 C1478.34,1409.187 1495.58,1375.361 1506.68,1353.814 " fill="none" id="path-_Waypoint" style="stroke: #000000; stroke-width: 0.5;"/><polygon fill="#000000" points="1509.09,1349.143,1501.4095,1355.3083,1506.7981,1353.5868,1508.5196,1358.9753,1509.09,1349.143" style="stroke: #000000; stroke-width: 0.5;"/><!--link pointMapping to _types_Vector--><path d="M1009.26,673.14 C1064.01,688.05 1172.27,713.82 1266.09,713.82 C1266.09,713.82 1266.09,713.82 1384.59,713.82 C1469.93,713.82 1513.64,684.58 1574.09,744.82 C1652.69,823.16 1666.05,1193.817 1668.2,1288.671 " fill="none" id="pointMapping-_types_Vector" style="stroke: #000000; stroke-width: 0.5;"/><polygon fill="#000000" points="1668.31,1293.751,1672.1163,1284.6674,1668.2029,1288.7521,1664.1181,1284.8388,1668.31,1293.751" style="stroke: #000000; stroke-width: 0.5;"/><!--link position to Interpolation--><path d="M1302.85,1578.015 C1343.37,1575.908 1410.97,1572.393 1459.61,1569.863 " fill="none" id="position-Interpolation" style="stroke: #000000; stroke-width: 0.5; stroke-dasharray: 7.0,7.0;"/><polygon fill="#000000" points="1464.85,1569.591,1455.6461,1566.0854,1459.8574,1569.8624,1456.0804,1574.0737,1464.85,1569.591" style="stroke: #000000; stroke-width: 0.5;"/><!--link position to math/Vector--><path d="M1298.66,1573.359 C1329.13,1566.259 1376.76,1553.35 1415.09,1534.823 C1446.49,1519.644 1479.02,1495.572 1498.91,1479.735 " fill="none" id="position-math/Vector" style="stroke: #000000; stroke-width: 0.5; stroke-dasharray: 7.0,7.0;"/><polygon fill="#000000" points="1502.96,1476.487,1493.4368,1478.9985,1499.0598,1479.6157,1498.4427,1485.2388,1502.96,1476.487" style="stroke: #000000; stroke-width: 0.5;"/><!--link position to _types_Vector--><path d="M1299.15,1585.828 C1368.03,1598.412 1530.87,1623.918 1574.09,1592.823 C1659.76,1531.179 1668.87,1388.189 1669.06,1333.057 " fill="none" id="position-_types_Vector" style="stroke: #000000; stroke-width: 0.5; stroke-dasharray: 7.0,7.0;"/><polygon fill="#000000" points="1669.05,1328.001,1665.0629,1337.0067,1669.0571,1333.001,1673.0629,1336.9953,1669.05,1328.001" style="stroke: #000000; stroke-width: 0.5;"/><!--link position to _Waypoint--><path d="M1294.77,1571.403 C1303.05,1568.44 1312.1,1564.835 1320.09,1560.823 C1335.29,1553.186 1336.99,1547.667 1352.09,1539.823 C1378.82,1525.932 1392.4,1534.64 1415.09,1514.823 C1428.72,1502.91 1483.23,1399.266 1506.96,1353.448 " fill="none" id="position-_Waypoint" style="stroke: #000000; stroke-width: 0.5; stroke-dasharray: 7.0,7.0;"/><polygon fill="#000000" points="1509.29,1348.938,1501.6033,1355.0955,1506.9936,1353.3794,1508.7096,1358.7697,1509.29,1348.938" style="stroke: #000000; stroke-width: 0.5;"/><!--link processor to Map--><path d="M1153.41,1592.764 C1162.36,1588.424 1172.71,1583.396 1182.09,1578.823 C1203.88,1568.194 1208.39,1563.352 1231.09,1554.823 C1269.44,1540.412 1282.71,1547.602 1320.09,1530.823 C1336.75,1523.343 1353.97,1511.698 1366.11,1502.727 " fill="none" id="processor-Map" style="stroke: #000000; stroke-width: 0.5; stroke-dasharray: 7.0,7.0;"/><polygon fill="#000000" points="1370.35,1499.555,1360.7496,1501.7534,1366.3495,1502.5543,1365.5485,1508.1542,1370.35,1499.555" style="stroke: #000000; stroke-width: 0.5;"/><!--link processor to position--><path d="M1167.97,1597.201 C1187.02,1593.827 1210.1,1589.739 1229.09,1586.375 " fill="none" id="processor-position" style="stroke: #000000; stroke-width: 0.5; stroke-dasharray: 7.0,7.0;"/><polygon fill="#000000" points="1234.33,1585.447,1224.7705,1583.077,1229.4065,1586.3185,1226.165,1590.9545,1234.33,1585.447" style="stroke: #000000; stroke-width: 0.5;"/><!--link processor to _State--><path d="M1157.7,1593.6 C1166.02,1589.716 1174.88,1584.767 1182.09,1578.823 C1260.95,1513.785 1278.08,1488.016 1320.09,1394.823 C1331.73,1368.984 1366.66,1179.784 1378.56,1114.162 " fill="none" id="processor-_State" style="stroke: #000000; stroke-width: 0.5; stroke-dasharray: 7.0,7.0;"/><polygon fill="#000000" points="1379.51,1108.927,1373.9679,1117.0686,1378.6176,1113.8467,1381.8394,1118.4964,1379.51,1108.927" style="stroke: #000000; stroke-width: 0.5;"/><!--link reducers to _Actions--><path d="M1157.8,1444.939 C1166.42,1441.072 1175.43,1435.794 1182.09,1428.823 C1220.18,1388.94 1186.8,1347.682 1231.09,1314.823 C1264.38,1290.124 1313.64,1289.283 1346.87,1292.353 " fill="none" id="reducers-_Actions" style="stroke: #000000; stroke-width: 0.5; stroke-dasharray: 7.0,7.0;"/><polygon fill="#000000" points="1352.06,1292.876,1343.505,1287.9962,1347.0851,1292.3761,1342.7052,1295.9561,1352.06,1292.876" style="stroke: #000000; stroke-width: 0.5;"/><!--link reducers to _State--><path d="M1159.25,1445.485 C1167.77,1441.688 1176.34,1436.314 1182.09,1428.823 C1252.33,1337.254 1162.88,1266.92 1231.09,1173.823 C1261.33,1132.546 1318.81,1109.816 1353.62,1099.279 " fill="none" id="reducers-_State" style="stroke: #000000; stroke-width: 0.5; stroke-dasharray: 7.0,7.0;"/><polygon fill="#000000" points="1358.59,1097.812,1348.8225,1096.5487,1353.7982,1099.2398,1351.107,1104.2155,1358.59,1097.812" style="stroke: #000000; stroke-width: 0.5;"/><!--link _render_layers to _Events--><path d="M846.806,542.9 C873.816,557.55 909.673,576.64 917.087,578.82 C1029.21,611.83 1169.58,613.32 1232.67,612.01 " fill="none" id="_render_layers-_Events" style="stroke: #000000; stroke-width: 0.5; stroke-dasharray: 7.0,7.0;"/><polygon fill="#000000" points="1237.8,611.89,1228.7109,608.0967,1232.8013,612.0043,1228.8938,616.0946,1237.8,611.89" style="stroke: #000000; stroke-width: 0.5;"/><!--link _render_layers to _State--><path d="M862.458,513.94 C962.661,491.65 1198.47,456.39 1320.09,581.82 C1351.2,613.91 1344.25,938.82 1352.09,982.82 C1357.54,1013.45 1367.91,1047.88 1375.03,1069.698 " fill="none" id="_render_layers-_State" style="stroke: #000000; stroke-width: 0.5;"/><polygon fill="#000000" points="1376.68,1074.694,1377.6685,1064.8949,1375.1181,1069.9442,1370.0688,1067.3939,1376.68,1074.694" style="stroke: #000000; stroke-width: 0.5;"/><!--link <b>request-actions</b> to _RequestActions--><path d="M267.39,390.7 C282.083,351.83 324.183,251.64 388.087,190.82 C480.963,102.43 515.87,57.82 644.087,57.82 C644.087,57.82 644.087,57.82 815.587,57.82 C1076.23,57.82 1224.65,114.28 1320.09,356.82 C1364.1,468.68 1326.91,779.28 1352.09,896.82 C1368.61,973.99 1397.29,985.94 1415.09,1062.823 C1468.43,1293.29 1364.57,1378.214 1464.09,1592.823 C1470.25,1606.121 1481.03,1618.11 1491.34,1627.474 " fill="none" id="&lt;b&gt;request-actions&lt;/b&gt;-_RequestActions" style="stroke: #000000; stroke-width: 1.0;"/><polygon fill="#000000" points="1495.11,1630.803,1490.9978,1621.8537,1491.3571,1627.4992,1485.7116,1627.8584,1495.11,1630.803" style="stroke: #000000; stroke-width: 1.0;"/><!--link <b>request-actions</b> to _types_Vector--><path d="M264.278,390.59 C273.099,342.25 305.451,197.57 388.087,115.82 C475.878,28.98 520.598,7.82 644.087,7.82 C644.087,7.82 644.087,7.82 1384.59,7.82 C1504.17,7.82 1523.9,90.28 1574.09,198.82 C1668.42,402.84 1669.39,1150.453 1668.74,1288.743 " fill="none" id="&lt;b&gt;request-actions&lt;/b&gt;-_types_Vector" style="stroke: #000000; stroke-width: 1.0;"/><polygon fill="#000000" points="1668.71,1293.773,1672.7562,1284.7937,1668.7357,1288.7731,1664.7563,1284.7525,1668.71,1293.773" style="stroke: #000000; stroke-width: 1.0;"/><!--link _RequestActions to _types_Vector--><path d="M1554.46,1630.656 C1561.74,1625.722 1568.82,1619.762 1574.09,1612.823 C1641.38,1524.206 1661.35,1386.769 1666.75,1333.236 " fill="none" id="_RequestActions-_types_Vector" style="stroke: #000000; stroke-width: 0.5; stroke-dasharray: 7.0,7.0;"/><polygon fill="#000000" points="1667.26,1328.022,1662.4087,1336.5932,1666.7766,1332.9986,1670.3712,1337.3665,1667.26,1328.022" style="stroke: #000000; stroke-width: 0.5;"/><!--link <b>server</b> to controller/sockets--><path d="M112.26,1593.149 C118.866,1598.305 126.571,1604.63 133.087,1610.823 C145.179,1622.316 142.86,1632.005 158.087,1638.823 C308.644,1706.233 512.35,1657.981 600.476,1631.313 " fill="none" id="&lt;b&gt;server&lt;/b&gt;-controller/sockets" style="stroke: #000000; stroke-width: 1.0; stroke-dasharray: 7.0,7.0;"/><polygon fill="#000000" points="605.35,1629.824,595.5739,1628.6294,600.5684,1631.2855,597.9122,1636.28,605.35,1629.824" style="stroke: #000000; stroke-width: 1.0;"/><!--link <b>server</b> to frontend--><path d="M65.4395,1577.458 C45.9751,1572.898 22.313,1563.624 10.5865,1544.823 C4.4712,1535.018 4.4712,1528.627 10.5865,1518.823 C20.6794,1502.641 39.6138,1493.516 57.1037,1488.38 " fill="none" id="&lt;b&gt;server&lt;/b&gt;-frontend" style="stroke: #000000; stroke-width: 1.0; stroke-dasharray: 7.0,7.0;"/><polygon fill="#000000" points="61.9899,1487.035,52.2509,1485.5679,57.1693,1488.3624,54.3748,1493.2809,61.9899,1487.035" style="stroke: #000000; stroke-width: 1.0;"/><!--link <b>server</b> to game--><path d="M96.0865,1568.541 C96.0865,1562.416 96.0865,1556.29 96.0865,1550.164 " fill="none" id="&lt;b&gt;server&lt;/b&gt;-game" style="stroke: #000000; stroke-width: 1.0; stroke-dasharray: 7.0,7.0;"/><polygon fill="#000000" points="96.0865,1545.018,92.0865,1554.018,96.0865,1550.018,100.0865,1554.018,96.0865,1545.018" style="stroke: #000000; stroke-width: 1.0;"/><!--link socket to _constants--><path d="M648.638,838.79 C657.03,877.84 687.56,995.16 761.087,1052.823 C856.95,1127.997 909.91,1085.236 1028.09,1114.823 C1046.99,1119.555 1067.8,1125.093 1085.56,1129.917 " fill="none" id="socket-_constants" style="stroke: #000000; stroke-width: 0.5;"/><polygon fill="#000000" points="1090.49,1131.257,1082.8579,1125.032,1085.6658,1129.9427,1080.7551,1132.7507,1090.49,1131.257" style="stroke: #000000; stroke-width: 0.5;"/><!--link socket-events to dispatcher--><path d="M285.229,1600.157 C322.212,1580.345 393.469,1542.171 431.756,1521.66 " fill="none" id="socket-events-dispatcher" style="stroke: #000000; stroke-width: 0.5; stroke-dasharray: 7.0,7.0;"/><polygon fill="#000000" points="436.257,1519.249,426.4349,1519.9739,431.8498,1521.6105,430.2132,1527.0254,436.257,1519.249" style="stroke: #000000; stroke-width: 0.5;"/><!--link socket-events to id--><path d="M270.195,1626.945 C288.065,1654.718 332.22,1715.747 388.087,1738.823 C650.987,1847.414 761.27,1837.4 1028.09,1738.823 C1067.5,1724.26 1101.92,1686.577 1118.34,1666.266 " fill="none" id="socket-events-id" style="stroke: #000000; stroke-width: 0.5;"/><polygon fill="#000000" points="1121.57,1662.21,1112.8374,1666.7644,1118.4579,1666.1234,1119.0989,1671.7438,1121.57,1662.21" style="stroke: #000000; stroke-width: 0.5;"/><!--link socket-events to _model_sockets--><path d="M303.533,1603.407 C328.057,1598.269 359.682,1592.269 388.087,1588.823 C518.877,1572.953 673.615,1568.032 755.686,1566.507 " fill="none" id="socket-events-_model_sockets" style="stroke: #000000; stroke-width: 0.5; stroke-dasharray: 7.0,7.0;"/><polygon fill="#000000" points="760.985,1566.411,751.9144,1562.5737,755.9858,1566.501,752.0585,1570.5724,760.985,1566.411" style="stroke: #000000; stroke-width: 0.5;"/><!--link socket-events to _RequestActions--><path d="M268.849,1627.053 C298.104,1682.435 413.681,1883.255 578.087,1938.8225 C634.507,1957.8919 652.546,1940.1799 712.087,1938.8225 C897.342,1934.599 943.283,1919.823 1128.59,1919.823 C1128.59,1919.823 1128.59,1919.823 1268.09,1919.823 C1334.86,1919.823 1363.48,1931.189 1415.09,1888.823 C1484.99,1831.439 1508.43,1717.887 1515.42,1669.975 " fill="none" id="socket-events-_RequestActions" style="stroke: #000000; stroke-width: 0.5;"/><polygon fill="#000000" points="1516.12,1665.005,1510.9032,1673.3588,1515.4223,1669.9561,1518.825,1674.4751,1516.12,1665.005" style="stroke: #000000; stroke-width: 0.5;"/><!--link state to state--><path d="M961.175,1508.077 C954.462,1496.125 958.266,1482.823 972.587,1482.823 C985.005,1482.823 989.515,1492.826 986.116,1503.278 " fill="none" id="state-state" style="stroke: #000000; stroke-width: 0.5;"/><polygon fill="#000000" points="983.998,1508.077,991.2928,1501.4599,986.0178,1503.5031,983.9746,1498.2282,983.998,1508.077" style="stroke: #000000; stroke-width: 0.5;"/><!--link state to state--><path d="M957.797,1509.623 C934.446,1488.312 939.376,1458.823 972.587,1458.823 C1003.981,1458.823 1010.1,1485.175 990.953,1506.06 " fill="none" id="state-state-1" style="stroke: #000000; stroke-width: 0.5;"/><polygon fill="#000000" points="987.376,1509.623,996.5748,1506.1042,990.918,1506.0939,990.9282,1500.4371,987.376,1509.623" style="stroke: #000000; stroke-width: 0.5;"/><!--link state to _State--><path d="M973.775,1506.412 C975.003,1437.861 984.213,1132.749 1053.09,1074.823 C1140.46,1001.33 1290.87,1059.485 1353.69,1083.508 " fill="none" id="state-_State" style="stroke: #000000; stroke-width: 0.5;"/><polygon fill="#000000" points="1358.42,1085.313,1351.423,1078.3818,1353.7448,1083.5402,1348.5865,1085.862,1358.42,1085.313" style="stroke: #000000; stroke-width: 0.5;"/><!--link state to _State--><path d="M973.671,1506.589 C974.421,1436.02 981.748,1110.822 1053.09,1050.823 C1141.54,976.43 1294.56,1036.93 1355.96,1072.037 " fill="none" id="state-_State-1" style="stroke: #000000; stroke-width: 0.5;"/><polygon fill="#000000" points="1360.57,1074.726,1354.8245,1066.7267,1356.2552,1072.1996,1350.7823,1073.6304,1360.57,1074.726" style="stroke: #000000; stroke-width: 0.5;"/><!--link state to actions--><path d="M995.794,1517.53 C1020.88,1514.941 1062.09,1510.687 1091.96,1507.604 " fill="none" id="state-actions" style="stroke: #000000; stroke-width: 0.5; stroke-dasharray: 7.0,7.0;"/><polygon fill="#000000" points="1097.02,1507.081,1087.6563,1504.028,1092.0465,1507.5953,1088.4792,1511.9856,1097.02,1507.081" style="stroke: #000000; stroke-width: 0.5;"/><!--link state to processor--><path d="M985.696,1530.764 C1000.607,1543.755 1027.16,1565.353 1053.09,1578.823 C1064.77,1584.891 1078.22,1589.907 1090.51,1593.813 " fill="none" id="state-processor" style="stroke: #000000; stroke-width: 0.5; stroke-dasharray: 7.0,7.0;"/><polygon fill="#000000" points="1095.33,1595.309,1087.9068,1588.8363,1090.5517,1593.8368,1085.5512,1596.4816,1095.33,1595.309" style="stroke: #000000; stroke-width: 0.5;"/><!--link state to reducers--><path d="M989.674,1510.578 C1005.486,1501.72 1030.47,1488.331 1053.09,1478.823 C1066.58,1473.151 1081.84,1467.891 1095.09,1463.673 " fill="none" id="state-reducers" style="stroke: #000000; stroke-width: 0.5; stroke-dasharray: 7.0,7.0;"/><polygon fill="#000000" points="1099.88,1462.168,1090.0946,1461.0521,1095.1103,1463.6679,1092.4944,1468.6836,1099.88,1462.168" style="stroke: #000000; stroke-width: 0.5;"/><!--link state to utils--><path d="M994.814,1524.479 C1023.81,1530.84 1075.62,1542.204 1105.54,1548.767 " fill="none" id="state-utils" style="stroke: #000000; stroke-width: 0.5; stroke-dasharray: 7.0,7.0;"/><polygon fill="#000000" points="1110.5,1549.856,1102.5498,1544.0427,1105.6132,1548.7983,1100.8575,1551.8616,1110.5,1549.856" style="stroke: #000000; stroke-width: 0.5;"/><!--link _State to _types_Vector--><path d="M1406.87,1109.007 C1458.61,1148.906 1586.69,1247.674 1642.22,1290.488 " fill="none" id="_State-_types_Vector" style="stroke: #000000; stroke-width: 0.5; stroke-dasharray: 7.0,7.0;"/><polygon fill="#000000" points="1646.41,1293.718,1641.7122,1285.0617,1642.4458,1290.6708,1636.8367,1291.4044,1646.41,1293.718" style="stroke: #000000; stroke-width: 0.5;"/><!--link _State to _Waypoint--><path d="M1394.19,1109.083 C1418,1151.894 1479.75,1262.904 1506,1310.088 " fill="none" id="_State-_Waypoint" style="stroke: #000000; stroke-width: 0.5; stroke-dasharray: 7.0,7.0;"/><polygon fill="#000000" points="1508.57,1314.719,1507.6934,1304.9092,1506.1407,1310.3488,1500.7011,1308.7961,1508.57,1314.719" style="stroke: #000000; stroke-width: 0.5;"/><!--link _units to circle--><path d="M669.377,638.6 C699.582,642.21 752.255,648.5 784.894,652.4 " fill="none" id="_units-circle" style="stroke: #000000; stroke-width: 0.5; stroke-dasharray: 7.0,7.0;"/><polygon fill="#000000" points="789.954,653,781.491,647.9624,784.9892,652.4079,780.5437,655.9061,789.954,653" style="stroke: #000000; stroke-width: 0.5;"/><!--link _units to drawing/text--><path d="M669.377,628.04 C697.364,618.68 744.639,602.87 777.395,591.92 " fill="none" id="_units-drawing/text" style="stroke: #000000; stroke-width: 0.5; stroke-dasharray: 7.0,7.0;"/><polygon fill="#000000" points="782.523,590.21,772.7193,589.2675,777.7806,591.7941,775.254,596.8554,782.523,590.21" style="stroke: #000000; stroke-width: 0.5;"/><!--link _units to _Events--><path d="M669.43,634.72 C692.662,633.65 729.334,632 761.087,630.82 C948.158,623.87 995.19,628.49 1182.09,617.82 C1198.76,616.87 1217.25,615.38 1232.64,614.01 " fill="none" id="_units-_Events" style="stroke: #000000; stroke-width: 0.5; stroke-dasharray: 7.0,7.0;"/><polygon fill="#000000" points="1237.73,613.56,1228.4024,610.3985,1232.7509,614.0165,1229.1328,618.3651,1237.73,613.56" style="stroke: #000000; stroke-width: 0.5;"/><!--link _units to math/Vector--><path d="M648.634,618.69 C656.364,573.11 683.941,448.17 761.087,386.82 C958.503,229.82 1130.23,122.76 1320.09,288.82 C1501.01,447.07 1391.17,1131.786 1464.09,1360.823 C1474.28,1392.839 1494.04,1426.755 1506.62,1446.572 " fill="none" id="_units-math/Vector" style="stroke: #000000; stroke-width: 0.5;"/><polygon fill="#000000" points="1509.34,1450.82,1507.8529,1441.0841,1506.6427,1446.6099,1501.1168,1445.3997,1509.34,1450.82" style="stroke: #000000; stroke-width: 0.5;"/><!--link _units to _render_layers--><path d="M669.266,625.42 C682.34,619.09 698.687,610.4 712.087,600.82 C736.385,583.45 736.937,572.4 761.087,554.82 C765.534,551.59 770.381,548.45 775.274,545.51 " fill="none" id="_units-_render_layers" style="stroke: #000000; stroke-width: 0.5; stroke-dasharray: 7.0,7.0;"/><polygon fill="#000000" points="779.771,542.87,769.9846,543.9771,775.4592,545.4014,774.0348,550.876,779.771,542.87" style="stroke: #000000; stroke-width: 0.5;"/><!--link _units to state--><path d="M669.31,649.58 C683.757,659.32 701.534,673.67 712.087,690.82 C762.766,773.19 734.55,809.83 761.087,902.82 C829.781,1143.559 936.915,1428.908 964.78,1502.055 " fill="none" id="_units-state" style="stroke: #000000; stroke-width: 0.5;"/><polygon fill="#000000" points="966.647,1506.952,967.175,1497.1173,964.8642,1502.2806,959.7008,1499.9698,966.647,1506.952" style="stroke: #000000; stroke-width: 0.5;"/><!--link _units to _State--><path d="M669.109,651.51 C682.765,661.62 699.759,675.66 712.087,690.82 C741.315,726.77 726.03,752.54 761.087,782.82 C960.763,955.32 1117.74,813.47 1320.09,982.82 C1347.88,1006.09 1365.93,1045.08 1375.17,1069.576 " fill="none" id="_units-_State" style="stroke: #000000; stroke-width: 0.5;"/><polygon fill="#000000" points="1377.01,1074.573,1377.6531,1064.7452,1375.282,1069.8811,1370.1461,1067.51,1377.01,1074.573" style="stroke: #000000; stroke-width: 0.5;"/><!--link _units to utils/text--><path d="M669.25,650.04 C683.486,659.87 701.052,674.16 712.087,690.82 C753.617,753.54 715.696,792.84 761.087,852.82 C852.796,974.01 1026.56,1049.611 1097.37,1076.623 " fill="none" id="_units-utils/text" style="stroke: #000000; stroke-width: 0.5;"/><polygon fill="#000000" points="1102.29,1078.484,1095.2909,1071.5549,1097.6143,1076.7126,1092.4566,1079.036,1102.29,1078.484" style="stroke: #000000; stroke-width: 0.5;"/><!--link utils to Map--><path d="M1148.71,1549.22 C1193.68,1537.799 1310.32,1508.177 1359.83,1495.603 " fill="none" id="utils-Map" style="stroke: #000000; stroke-width: 0.5; stroke-dasharray: 7.0,7.0;"/><polygon fill="#000000" points="1364.96,1494.298,1355.253,1492.6325,1360.1133,1495.5268,1357.2191,1500.3872,1364.96,1494.298" style="stroke: #000000; stroke-width: 0.5;"/><!--link utils to math/Vector--><path d="M1146.48,1546.531 C1166.19,1537.565 1200.89,1522.035 1231.09,1509.823 C1284.28,1488.308 1295.65,1475.153 1352.09,1464.823 C1388.82,1458.099 1430.89,1457.925 1463.49,1459.394 " fill="none" id="utils-math/Vector" style="stroke: #000000; stroke-width: 0.5; stroke-dasharray: 7.0,7.0;"/><polygon fill="#000000" points="1468.64,1459.643,1459.8449,1455.2106,1463.6459,1459.4002,1459.4563,1463.2012,1468.64,1459.643" style="stroke: #000000; stroke-width: 0.5;"/><!--link utils to _State--><path d="M1148.46,1548.948 C1159.49,1545.111 1173.18,1538.726 1182.09,1528.823 C1225.04,1481.047 1198.52,1448.203 1231.09,1392.823 C1261.59,1340.962 1290.67,1343.305 1320.09,1290.823 C1353.25,1231.66 1371.34,1152.552 1378.66,1114.349 " fill="none" id="utils-_State" style="stroke: #000000; stroke-width: 0.5; stroke-dasharray: 7.0,7.0;"/><polygon fill="#000000" points="1379.67,1109.016,1374.0754,1117.1216,1378.7458,1113.9298,1381.9375,1118.6003,1379.67,1109.016" style="stroke: #000000; stroke-width: 0.5;"/><!--link utils to _types_Vector--><path d="M1147.02,1547.305 C1157.48,1542.812 1171.08,1536.314 1182.09,1528.823 C1206.53,1512.191 1205.29,1498.272 1231.09,1483.823 C1369.41,1406.344 1433.06,1458.272 1574.09,1385.823 C1601.8,1371.585 1629.21,1348.571 1647.32,1331.787 " fill="none" id="utils-_types_Vector" style="stroke: #000000; stroke-width: 0.5; stroke-dasharray: 7.0,7.0;"/><polygon fill="#000000" points="1651.26,1328.092,1641.9555,1331.3208,1647.6092,1331.5084,1647.4217,1337.1621,1651.26,1328.092" style="stroke: #000000; stroke-width: 0.5;"/><!--link views to model/components--><path d="M286.222,668.04 C303.359,665.5 325.489,659.4 339.087,644.82 C400.925,578.53 331.547,517.69 388.087,446.82 C394.458,438.84 403.131,432.51 412.188,427.57 " fill="none" id="views-model/components" style="stroke: #000000; stroke-width: 0.5; stroke-dasharray: 7.0,7.0;"/><polygon fill="#000000" points="416.657,425.25,406.8257,425.8379,412.2173,427.5498,410.5054,432.9414,416.657,425.25" style="stroke: #000000; stroke-width: 0.5;"/><!--link _Waypoint to _types_Vector--><path d="M1555.66,1326.793 C1574.24,1324.164 1597.32,1320.9 1617.76,1318.01 " fill="none" id="_Waypoint-_types_Vector" style="stroke: #000000; stroke-width: 0.5; stroke-dasharray: 7.0,7.0;"/><polygon fill="#000000" points="1622.9,1317.284,1613.4287,1314.5832,1617.9492,1317.9839,1614.5485,1322.5044,1622.9,1317.284" style="stroke: #000000; stroke-width: 0.5;"/><!--link _waypoints to circle--><path d="M684.095,705.3 C716.262,693.01 761.415,675.76 789.021,665.21 " fill="none" id="_waypoints-circle" style="stroke: #000000; stroke-width: 0.5; stroke-dasharray: 7.0,7.0;"/><polygon fill="#000000" points="793.965,663.32,784.13,662.7973,789.2946,665.1053,786.9865,670.2699,793.965,663.32" style="stroke: #000000; stroke-width: 0.5;"/><!--link _waypoints to _Events--><path d="M684.338,723.89 C755.056,729.87 909.81,735.77 1028.09,688.82 C1041.31,683.57 1040.4,675.27 1053.09,668.82 C1084.55,652.83 1180.99,629.83 1232.62,618.18 " fill="none" id="_waypoints-_Events" style="stroke: #000000; stroke-width: 0.5; stroke-dasharray: 7.0,7.0;"/><polygon fill="#000000" points="1237.78,617.02,1228.1212,615.0945,1232.9021,618.1182,1229.8784,622.8991,1237.78,617.02" style="stroke: #000000; stroke-width: 0.5;"/><!--link _waypoints to line--><path d="M684.095,728.45 C717.757,736.08 765.641,746.95 792.754,753.1 " fill="none" id="_waypoints-line" style="stroke: #000000; stroke-width: 0.5; stroke-dasharray: 7.0,7.0;"/><polygon fill="#000000" points="797.89,754.26,790.0003,748.3649,793.0143,753.1519,788.2273,756.1659,797.89,754.26" style="stroke: #000000; stroke-width: 0.5;"/><!--link _waypoints to Map--><path d="M664.214,737.11 C679.252,752.46 700.051,776.22 712.087,800.82 C754.768,888.08 688.719,949.02 761.087,1013.82 C831.255,1076.652 1105.64,1007.8 1182.09,1062.823 C1327.24,1167.288 1370.64,1404.211 1380.27,1471.62 " fill="none" id="_waypoints-Map" style="stroke: #000000; stroke-width: 0.5;"/><polygon fill="#000000" points="1381,1476.897,1383.7264,1467.433,1380.3135,1471.9444,1375.8021,1468.5315,1381,1476.897" style="stroke: #000000; stroke-width: 0.5;"/><!--link _waypoints to _render_layers--><path d="M671.734,702.8 C685.096,692.94 700.929,679.57 712.087,664.82 C744.372,622.14 724.896,594.25 761.087,554.82 C764.072,551.57 767.51,548.6 771.167,545.91 " fill="none" id="_waypoints-_render_layers" style="stroke: #000000; stroke-width: 0.5; stroke-dasharray: 7.0,7.0;"/><polygon fill="#000000" points="775.547,542.87,765.8701,544.7022,771.4355,545.7152,770.4224,551.2806,775.547,542.87" style="stroke: #000000; stroke-width: 0.5;"/><!--link _waypoints to _State--><path d="M663.396,737.07 C678.122,752.58 698.921,776.6 712.087,800.82 C745.977,863.19 706.225,907.79 761.087,952.82 C954.41,1111.521 1099.71,899.54 1320.09,1017.82 C1342.16,1029.67 1359.71,1052.794 1370.53,1070.054 " fill="none" id="_waypoints-_State" style="stroke: #000000; stroke-width: 0.5;"/><polygon fill="#000000" points="1373.4,1074.752,1372.1108,1064.9879,1370.7887,1070.4881,1365.2885,1069.166,1373.4,1074.752" style="stroke: #000000; stroke-width: 0.5;"/><!--link _waypoints to _Waypoint--><path d="M674.277,736.9 C697.175,750.37 730.563,769.1 761.087,782.82 C1001.764,890.99 1091.33,851.31 1320.09,982.82 C1367.94,1010.33 1383.09,1017.84 1415.09,1062.823 C1472.7,1143.816 1502.94,1261.195 1513.58,1309.637 " fill="none" id="_waypoints-_Waypoint" style="stroke: #000000; stroke-width: 0.5;"/><polygon fill="#000000" points="1514.67,1314.653,1516.6762,1305.0106,1513.6126,1309.7661,1508.8571,1306.7025,1514.67,1314.653" style="stroke: #000000; stroke-width: 0.5;"/><script type="text/plantuml"><![CDATA[
@startuml

scale max 1920 width
left to right direction

skinparam nodesep 24
skinparam ranksep 49
skinparam monochrome true
skinparam shadowing false
skinparam defaultFontName Tahoma
skinparam defaultFontSize 12
skinparam roundCorner 6
skinparam dpi 150
skinparam arrowColor black
skinparam arrowThickness 0.5
skinparam packageTitleAlignment left

skinparam usecase {
  borderThickness 0.5
}

skinparam rectangle {
  borderThickness 0.5
}

skinparam component {
  borderThickness 1
}


package "Server" {
  (controller/sockets)
  (dispatcher)
  (frontend)
  (game)
  (manipulation)
  rectangle "model/sockets" as _model_sockets
  (path)
  (<b>server</b>)
  (socket-events)
  (state)
  (<b>types.d</b>)
}

package "Frontend" {
  (<b>app</b>)
  rectangle "background" as _background
  (bundle)
  rectangle "canvas" as _canvas
  (circle)
  (controller/components)
  (<b>dispatcher</b>)
  (drawing/text)
  rectangle "Events" as _Events
  (<b>frontend</b>)
  (game)
  (grid)
  (io)
  rectangle "IO" as _IO
  (line)
  (model/components)
  (pointMapping)
  rectangle "render-layers" as _render_layers
  (<b>request-actions</b>)
  (socket)
  (state)
  rectangle "units" as _units
  (views)
  rectangle "waypoints" as _waypoints
}

package "Common Stuff" {
  (actions)
  rectangle "Actions" as _Actions
  (Circle)
  (<b>common.d</b>)
  rectangle "constants" as _constants
  (<b>frontend.d</b>)
  (id)
  (Interpolation)
  (Map)
  (math/Vector)
  (names)
  (position)
  (processor)
  rectangle "Queue" as _Queue
  (reducers)
  rectangle "RequestActions" as _RequestActions
  (state)
  rectangle "State" as _State
  rectangle "types/Vector" as _types_Vector
  (utils)
  (utils/text)
  rectangle "Waypoint" as _Waypoint
}

(actions) ...> _Actions
(actions) ...> _State
(actions) ...> _types_Vector
(actions) ...> _Waypoint
_Actions ..> _types_Vector
_Actions ..> _Waypoint
(<b>app</b>) ..[thickness=1]> (game)
_background ..> _canvas
_background ....> _Events
_background ..> (grid)
_background ..> _render_layers
_background ----> _State
_canvas ..> _background
_canvas ...> _Events
_canvas ...> _IO
_canvas ..> (pointMapping)
_canvas ..> _render_layers
_canvas ----> _State
_canvas ..> _units
_canvas ..> _waypoints
(circle) ..> (pointMapping)
(circle) ----> _types_Vector
(controller/components) ..> (model/components)
(controller/sockets) ----> (id)
(controller/sockets) ..> _model_sockets
(dispatcher) ...> _model_sockets
(dispatcher) ----> (state)
(dispatcher) ..> (state)
(<b>dispatcher</b>) ----[thickness=1]> _RequestActions
(<b>dispatcher</b>) ...[thickness=1]> (socket)
(drawing/text) ..> (pointMapping)
(drawing/text) ----> _types_Vector
(frontend) ----> _constants
(<b>frontend</b>) .[thickness=1]> (bundle)
(<b>frontend</b>) ---[thickness=1]> _constants
(<b>frontend</b>) .[thickness=1]> (controller/components)
(<b>frontend</b>) .[thickness=1]> (views)
(game) ..> (dispatcher)
(game) ----> (id)
(game) ..> (manipulation)
(game) ----> (names)
(game) ..> (path)
(game) ----> _Queue
(game) ----> _RequestActions
(game) ..> (socket-events)
(game) ----> (state)
(game) ..> (state)
(game) ..> (io)
(game) ..> (socket)
(game) ----> (state)
(game) ..> (state)
(game) ----> _State
(grid) ..> (line)
(io) ..> _canvas
(io) ..> _Events
(io) ..> _IO
_IO ----> _State
(line) ..> (pointMapping)
(line) ----> _types_Vector
(manipulation) ..> (dispatcher)
(manipulation) ----> (id)
(manipulation) ..> (path)
(manipulation) ----> _RequestActions
(manipulation) ----> (state)
(manipulation) ..> (state)
(math/Vector) ..> _types_Vector
(path) ----> (Circle)
(path) ----> (math/Vector)
(path) ----> _types_Vector
(path) ----> _Waypoint
(pointMapping) ..> _canvas
(pointMapping) ----> _types_Vector
(position) ...> (Interpolation)
(position) ...> (math/Vector)
(position) ...> _types_Vector
(position) ...> _Waypoint
(processor) ...> (Map)
(processor) ..> (position)
(processor) ...> _State
(reducers) ...> _Actions
(reducers) ...> _State
_render_layers ....> _Events
_render_layers ----> _State
(<b>request-actions</b>) ----[thickness=1]> _RequestActions
(<b>request-actions</b>) ----[thickness=1]> _types_Vector
_RequestActions ..> _types_Vector
(<b>server</b>) .[thickness=1]> (controller/sockets)
(<b>server</b>) .[thickness=1]> (frontend)
(<b>server</b>) .[thickness=1]> (game)
(socket) ----> _constants
(socket-events) ..> (dispatcher)
(socket-events) ..> (game)
(socket-events) ----> (id)
(socket-events) ...> _model_sockets
(socket-events) ----> _RequestActions
(state) ----> (state)
(state) ----> _State
(state) ----> (state)
(state) ----> _State
(state) ..> (actions)
(state) ..> (processor)
(state) ..> (reducers)
(state) ..> (utils)
_State ..> _types_Vector
_State ..> _Waypoint
_units ..> (circle)
_units ..> (drawing/text)
_units ....> _Events
_units ----> (math/Vector)
_units ..> _render_layers
_units ----> (state)
_units ----> _State
_units ----> (utils/text)
(utils) ...> (Map)
(utils) ...> (math/Vector)
(utils) ...> _State
(utils) ...> _types_Vector
(views) ..> (model/components)
_Waypoint ..> _types_Vector
_waypoints ..> (circle)
_waypoints ....> _Events
_waypoints ..> (line)
_waypoints ----> (Map)
_waypoints ..> _render_layers
_waypoints ----> _State
_waypoints ----> _Waypoint

@enduml


' View and edit on https://arkit.pro
]]></script></g></svg>